<svg width="25" height="25" viewBox="0 0 25 25" fill="none" xmlns="http://www.w3.org/2000/svg">
<g clip-path="url(#clip0_208_32)">
<path d="M14.4926 15.2206C18.6876 15.2206 22.1004 11.8066 22.1004 7.61033C22.1004 3.41404 18.6876 0 14.4926 0C10.2976 0 6.88477 3.41399 6.88477 7.61029C6.88477 11.8066 10.2976 15.2206 14.4926 15.2206ZM12.048 9.9851C12.2693 9.6494 12.7229 9.55516 13.0612 9.77488C13.5542 10.0948 13.7401 10.1243 14.3905 10.1198C15.0254 10.1157 15.3938 9.64606 15.4674 9.21146C15.5032 9.00008 15.5169 8.48388 14.8723 8.25772C14.1162 7.99243 13.3423 7.68922 12.8039 7.27018C12.2656 6.85113 12.0191 6.12771 12.1606 5.38235C12.3141 4.57433 12.8821 3.9311 13.6429 3.70369C13.6498 3.70165 13.6566 3.70001 13.6634 3.69797V3.42261C13.6634 3.02143 13.9912 2.69619 14.3954 2.69619C14.7997 2.69619 15.1274 3.02143 15.1274 3.42261V3.65221C15.6246 3.76998 15.9718 3.99571 16.1128 4.10026C16.4365 4.34052 16.5028 4.79569 16.2608 5.11706C16.0187 5.43843 15.5601 5.5042 15.2362 5.26389C15.0862 5.15261 14.6717 4.91337 14.0652 5.09474C13.7108 5.2007 13.6189 5.54764 13.5992 5.65142C13.5605 5.85535 13.604 6.04649 13.7074 6.12698C14.0806 6.41745 14.7523 6.67465 15.3602 6.88788C16.4811 7.28107 17.1043 8.31162 16.9111 9.4523C16.8163 10.012 16.5326 10.5312 16.1122 10.9145C15.8258 11.1757 15.4925 11.3618 15.1274 11.4681V11.798C15.1274 12.1991 14.7997 12.5244 14.3954 12.5244C13.9912 12.5244 13.6634 12.1991 13.6634 11.798V11.5406C13.1901 11.4836 12.7928 11.3367 12.2597 10.9907C11.9215 10.771 11.8266 10.3208 12.048 9.9851V9.9851Z" fill="#1E916F"/>
<path d="M2.77455 17.6614H1.10552C0.70127 17.6614 0.373535 17.9866 0.373535 18.3878V24.0825C0.373535 24.4836 0.70127 24.8089 1.10552 24.8089H2.7746V17.6614H2.77455Z" fill="#1E916F"/>
<path d="M24.4118 17.6107C23.0399 16.2492 20.8075 16.2491 19.4356 17.6107L17.2428 19.7867L16.3441 20.6786C15.9809 21.0391 15.4882 21.2416 14.9746 21.2416H10.6044C10.2097 21.2416 9.87009 20.9406 9.85149 20.5493C9.83168 20.1316 10.1671 19.7867 10.5837 19.7867H15.0257C15.9188 19.7867 16.6934 19.1557 16.8469 18.2826C16.8822 18.0821 16.9006 17.876 16.9006 17.6656C16.9007 17.2637 16.5725 16.9376 16.1676 16.9376H13.7337C12.9382 16.9376 12.1744 16.5795 11.3656 16.2003C10.5174 15.8026 9.64024 15.3914 8.61463 15.3237C7.71761 15.2644 6.81853 15.3619 5.94225 15.613C5.00399 15.8819 4.32954 16.7091 4.24775 17.6642C4.24463 17.664 4.24145 17.6639 4.23828 17.6637V24.8065L16.8493 24.8099C17.7163 24.8099 18.5316 24.4748 19.1448 23.8663L24.4117 18.6394C24.6981 18.3554 24.6981 17.8948 24.4118 17.6107V17.6107Z" fill="#1E916F"/>
</g>
<defs>
<clipPath id="clip0_208_32">
<rect width="25" height="24.81" fill="white"/>
</clipPath>
</defs>
</svg>
