<svg width="36" height="36" viewBox="0 0 36 36" fill="none" xmlns="http://www.w3.org/2000/svg">
<path d="M31.235 11.7998H28.686V6.78388C28.686 5.92498 28.344 5.12438 27.785 4.53908L26.138 2.81578C24.741 1.37568 24.564 0.968783 23.732 0.564683C23.345 0.371683 22.835 0.241882 22.322 0.241882H10.292C8.49898 0.241882 7.04198 1.69998 7.04198 3.49138V21.0151H6.35698C5.32298 21.0151 4.48198 21.8559 4.48198 22.8897C4.48198 23.4043 4.68996 23.8701 5.02596 24.209C4.68996 24.5478 4.48198 25.0137 4.48198 25.5282C4.48198 25.7212 4.50897 25.8358 4.51897 25.899C0.450971 26.3128 -1.17003 31.3481 1.80697 34.081C2.70697 34.9066 3.89996 35.3746 5.19396 35.3218C5.62196 35.3218 14.428 35.3184 14.439 35.3184C15.472 35.3184 16.313 34.4775 16.313 33.4437C16.313 32.9292 16.105 32.4633 15.769 32.1244C16.085 31.8057 16.288 31.3759 16.311 30.8982H17.014V31.2739C17.014 33.6603 18.955 35.6016 21.342 35.6016H31.235C33.621 35.6016 35.563 33.6603 35.563 31.2739V16.1276C35.563 13.7412 33.621 11.7998 31.235 11.7998ZM26.813 5.12998C26.813 5.12998 26.813 5.12998 26.814 5.13138C26.814 5.13278 26.817 5.13418 26.817 5.13488L26.818 5.13548C26.82 5.13758 26.821 5.13898 26.822 5.13968C26.823 5.14038 26.824 5.14108 26.824 5.14248C26.825 5.14308 26.826 5.14308 26.826 5.14378C26.826 5.14448 26.827 5.14448 26.828 5.14588C26.829 5.14658 26.83 5.14798 26.831 5.14868H24.047V2.20608C26.229 4.51208 26.72 5.03208 26.813 5.12998ZM6.35698 22.126H14.439C14.86 22.126 15.203 22.469 15.203 22.8897C15.203 23.3112 14.86 23.6535 14.439 23.6535H6.35698C5.93598 23.6535 5.59298 23.3112 5.59298 22.8897C5.59298 22.4689 5.93598 22.126 6.35698 22.126ZM6.35698 24.7644H14.439C14.86 24.7644 15.203 25.1075 15.203 25.5282C15.203 25.9497 14.86 26.2919 14.439 26.2919H8.85598C8.62898 26.1878 8.39397 26.1031 8.15297 26.0378C7.79297 25.9399 7.42098 25.8843 7.04198 25.8746C6.93298 25.8718 6.82399 25.8725 6.71499 25.8774H5.67797C5.62397 25.7725 5.59298 25.6538 5.59298 25.5281C5.59298 25.1075 5.93598 24.7644 6.35698 24.7644ZM15.203 28.1667C15.203 28.5882 14.86 28.9305 14.439 28.9305H11.33C11.119 28.3687 10.801 27.8514 10.387 27.4029H14.439C14.86 27.4029 15.203 27.7459 15.203 28.1667ZM3.65398 27.1697C3.31598 27.4904 3.01596 27.8716 2.77996 28.2917H2.13198C2.55498 27.7675 3.08098 27.3946 3.65398 27.1697ZM1.54097 29.3332H2.34996C2.33196 29.4109 2.24096 29.7102 2.19896 30.1657H1.34398C1.37798 29.8796 1.44397 29.6005 1.54097 29.3332ZM1.63097 32.0862C1.50797 31.8071 1.41998 31.5121 1.36998 31.2072H2.21898C2.37098 32.0696 2.37898 31.921 2.41698 32.0862H1.63097ZM2.32396 33.1277C2.66496 33.127 2.86299 33.1291 2.90899 33.1263C3.11699 33.454 3.36696 33.7575 3.65596 34.0303C3.15296 33.8325 2.70496 33.5305 2.32396 33.1277ZM7.06398 34.281C5.03098 34.3685 3.31096 32.7945 3.22496 30.7573C3.08496 27.5141 6.95897 25.6463 9.39797 27.8855C11.802 30.0928 10.339 34.1463 7.06398 34.281ZM14.439 34.2074H9.95598C10.452 33.7873 10.86 33.2673 11.149 32.6799H14.439C14.86 32.6799 15.203 33.0229 15.203 33.4437C15.203 33.8651 14.86 34.2074 14.439 34.2074ZM15.196 30.8982C15.151 31.2759 14.828 31.569 14.439 31.569H11.532C11.633 31.0871 11.662 30.5677 11.6 30.0415H14.439C14.907 30.0414 15.256 30.4601 15.196 30.8982ZM17.014 29.7872H16.011C15.941 29.6783 15.86 29.5776 15.769 29.4859C16.495 28.7541 16.495 27.5793 15.769 26.8475C16.105 26.5087 16.313 26.0428 16.313 25.5283C16.313 25.0137 16.105 24.5479 15.769 24.209C16.937 23.0315 16.102 21.0151 14.439 21.0151H8.15297V3.49138C8.15297 2.31238 9.11198 1.35278 10.292 1.35278H22.936V5.70418C22.936 6.01108 23.185 6.25968 23.492 6.25968H27.509C27.625 6.70958 27.553 6.56098 27.575 11.7998H21.342C18.955 11.7998 17.014 13.7411 17.014 16.1275V29.7872ZM34.521 31.2739C34.521 33.0861 33.047 34.5602 31.235 34.5602H21.342C19.53 34.5602 18.056 33.0861 18.056 31.2739V16.1276C18.056 14.3154 19.53 12.8413 21.342 12.8413H31.235C33.047 12.8413 34.521 14.3153 34.521 16.1276V31.2739Z" fill="#6ED3C1"/>
<path d="M31.201 14.0227H21.382C20.416 14.0227 19.634 14.8055 19.634 15.771V17.677C19.634 18.6425 20.416 19.4253 21.382 19.4253H23.271C23.559 19.4253 23.792 19.1921 23.792 18.9046C23.792 18.617 23.559 18.3838 23.271 18.3838H21.382C20.993 18.3838 20.675 18.0657 20.675 17.677V15.771C20.675 15.3823 20.993 15.0642 21.382 15.0642H31.201C31.591 15.0642 31.908 15.3815 31.908 15.771V17.677C31.908 18.0665 31.591 18.3838 31.201 18.3838H25.517C25.229 18.3838 24.996 18.617 24.996 18.9046C24.996 19.1921 25.229 19.4253 25.517 19.4253H31.201C32.166 19.4253 32.95 18.6407 32.95 17.677V15.771C32.95 14.8073 32.166 14.0227 31.201 14.0227Z" fill="#6ED3C1"/>
<path d="M22.503 24.9959H20.724C20.123 24.9959 19.634 25.4847 19.634 26.086V27.8649C19.634 28.4662 20.123 28.955 20.724 28.955H22.503C23.105 28.955 23.593 28.4661 23.593 27.8649V26.086C23.593 25.4847 23.105 24.9959 22.503 24.9959ZM22.552 27.8649C22.552 27.892 22.53 27.9135 22.503 27.9135H20.724C20.697 27.9135 20.675 27.892 20.675 27.8649V26.086C20.675 26.0589 20.697 26.0374 20.724 26.0374H22.503C22.53 26.0374 22.552 26.0589 22.552 26.086V27.8649Z" fill="#6ED3C1"/>
<path d="M31.912 20.3442H30.133C29.532 20.3442 29.043 20.8331 29.043 21.4343V23.2132C29.043 23.8145 29.532 24.3033 30.133 24.3033H31.912C32.514 24.3033 33.002 23.8145 33.002 23.2132V21.4343C33.002 20.8331 32.514 20.3442 31.912 20.3442ZM31.961 23.2132C31.961 23.2403 31.939 23.2618 31.912 23.2618H30.133C30.107 23.2618 30.085 23.2403 30.085 23.2132C30.106 21.4531 30.04 21.3857 30.133 21.3857H31.912C31.939 21.3857 31.961 21.4072 31.961 21.4343V23.2132Z" fill="#6ED3C1"/>
<path d="M22.503 20.3442H20.724C20.123 20.3442 19.634 20.833 19.634 21.4342V23.2131C19.634 23.8145 20.123 24.3032 20.724 24.3032H22.503C23.105 24.3032 23.593 23.8144 23.593 23.2131V21.4342C23.593 20.833 23.105 20.3442 22.503 20.3442ZM22.552 23.2131C22.552 23.2402 22.53 23.2618 22.503 23.2618H20.724C20.697 23.2618 20.675 23.2402 20.675 23.2131V21.4342C20.675 21.4072 20.697 21.3856 20.724 21.3856H22.503C22.53 21.3856 22.552 21.4072 22.552 21.4342V23.2131Z" fill="#6ED3C1"/>
<path d="M23.316 29.7869C23.116 29.5619 22.824 29.4196 22.5 29.4196H20.72C20.396 29.4196 20.104 29.5619 19.905 29.7869C19.527 30.2111 19.655 30.6736 19.63 30.8978V32.2886C19.63 32.8899 20.12 33.3787 20.72 33.3787H22.5C23.101 33.3787 23.59 32.8898 23.59 32.2886V30.8978C23.565 30.6785 23.692 30.2111 23.316 29.7869ZM22.5 32.3372C20.742 32.3157 20.672 32.3824 20.672 32.2886C20.672 30.4049 20.651 30.4611 20.72 30.4611H22.5C22.585 30.4611 22.533 30.5798 22.548 30.8978C22.548 30.8978 22.594 32.3372 22.5 32.3372Z" fill="#6ED3C1"/>
<path d="M31.636 24.9957H30.41C29.656 24.9957 29.043 25.6089 29.043 26.3622V31.887C29.043 32.7098 29.713 33.3792 30.535 33.3792H31.511C32.334 33.3792 33.003 32.7098 33.003 31.887V26.3622C33.002 25.6089 32.39 24.9957 31.636 24.9957ZM31.511 32.3376H30.535C30.287 32.3376 30.085 32.1356 30.085 31.887V26.3622C30.085 26.183 30.231 26.0372 30.41 26.0372H31.636C31.815 26.0372 31.961 26.183 31.961 26.3622V31.887C31.961 32.1356 31.76 32.3376 31.511 32.3376Z" fill="#6ED3C1"/>
<path d="M13.684 15.369C13.049 15.1358 12.59 14.9672 12.59 14.379C12.59 13.8428 12.946 13.571 13.648 13.571C14.394 13.571 14.594 13.8991 14.857 13.8991C15.143 13.8991 15.301 13.5959 15.301 13.3861C15.301 12.9523 14.593 12.7372 13.961 12.6804V12.2892C13.961 12.0171 13.739 11.7958 13.467 11.7958C13.195 11.7958 12.974 12.0171 12.974 12.2892V12.7428C12.109 12.9481 11.633 13.5456 11.633 14.4308C11.633 15.6429 12.526 15.9782 13.243 16.2477C13.945 16.5115 14.5 16.72 14.5 17.5216C14.5 18.1837 14.132 18.5194 13.407 18.5194C12.345 18.5194 12.335 17.8028 11.931 17.8028C11.68 17.8028 11.478 18.0835 11.478 18.3158C11.478 18.7261 12.089 19.2655 12.974 19.4055V19.7835C12.974 20.0556 13.195 20.2769 13.467 20.2769C13.739 20.2769 13.961 20.0556 13.961 19.7835V19.3954C14.912 19.2163 15.456 18.5176 15.456 17.4697C15.456 16.0203 14.473 15.6592 13.684 15.369Z" fill="#6ED3C1"/>
<path d="M27.935 29.7251C27.74 29.5363 27.473 29.4196 27.18 29.4196H25.4C25.076 29.4196 24.784 29.5619 24.584 29.7869C24.207 30.2118 24.335 30.6736 24.31 30.8978V32.2886C24.31 32.8899 24.799 33.3787 25.4 33.3787H27.18C27.781 33.3787 28.269 32.8898 28.269 32.2886V30.509C28.269 30.2015 28.141 29.923 27.935 29.7251ZM27.18 32.3372C25.422 32.3157 25.352 32.3824 25.352 32.2886V30.509C25.352 30.4826 25.374 30.4611 25.4 30.4611H27.18C27.206 30.4611 27.228 30.4826 27.228 30.509C27.207 32.2713 27.272 32.3372 27.18 32.3372Z" fill="#6ED3C1"/>
<path d="M27.178 20.3442H25.399C24.797 20.3442 24.308 20.833 24.308 21.4342V23.2131C24.308 23.8145 24.797 24.3032 25.399 24.3032H27.178C27.318 24.3032 27.452 24.2768 27.575 24.2282C27.98 24.0692 28.268 23.6741 28.268 23.2131V21.4342C28.268 20.8309 27.776 20.3442 27.178 20.3442ZM27.178 23.2618H25.399C25.372 23.2618 25.35 23.2402 25.35 23.2131V21.4342C25.35 21.3405 25.415 21.4065 27.178 21.3856C27.205 21.3856 27.226 21.4072 27.226 21.4342V23.2131C27.226 23.2402 27.205 23.2618 27.178 23.2618Z" fill="#6ED3C1"/>
<path d="M27.575 25.0709C27.452 25.0223 27.318 24.9959 27.178 24.9959H25.399C24.797 24.9959 24.308 25.4847 24.308 26.086V27.8649C24.308 28.4662 24.797 28.955 25.399 28.955H27.178C27.779 28.955 28.268 28.4661 28.268 27.8649V26.086C28.268 25.625 27.98 25.2299 27.575 25.0709ZM27.226 27.8649C27.226 27.892 27.205 27.9135 27.178 27.9135H25.399C25.372 27.9135 25.35 27.892 25.35 27.8649V26.086C25.35 26.0589 25.372 26.0374 25.399 26.0374H27.178C27.205 26.0374 27.226 26.0589 27.226 26.086V27.8649Z" fill="#6ED3C1"/>
<path d="M24.17 7.35779H22.8619C22.5739 7.35779 22.3409 7.59109 22.3409 7.87849C22.3409 8.16659 22.5739 8.39919 22.8619 8.39919H24.17C24.457 8.39919 24.6909 8.16659 24.6909 7.87849C24.6909 7.59109 24.457 7.35779 24.17 7.35779Z" fill="#6ED3C1"/>
<path d="M20.78 7.35779H11.546C11.258 7.35779 11.025 7.59109 11.025 7.87849C11.025 8.16659 11.258 8.39919 11.546 8.39919H20.78C21.068 8.39919 21.301 8.16659 21.301 7.87849C21.301 7.59109 21.068 7.35779 20.78 7.35779Z" fill="#6ED3C1"/>
<path d="M13.201 9.94318H11.546C11.258 9.94318 11.025 10.1765 11.025 10.4639C11.025 10.7513 11.258 10.9846 11.546 10.9846H13.201C13.488 10.9846 13.722 10.7513 13.722 10.4639C13.722 10.1765 13.488 9.94318 13.201 9.94318Z" fill="#6ED3C1"/>
<path d="M24.172 9.94318H15.285C14.997 9.94318 14.764 10.1765 14.764 10.4639C14.764 10.7513 14.997 10.9846 15.285 10.9846H24.172C24.46 10.9846 24.693 10.7513 24.693 10.4639C24.693 10.1765 24.46 9.94318 24.172 9.94318Z" fill="#6ED3C1"/>
<path d="M6.61194 29.6041C6.61194 29.4732 6.65996 29.4357 6.70496 29.4107C6.84496 29.3332 7.16596 29.3104 7.45996 29.4617C7.53796 29.5018 7.62594 29.5473 7.74194 29.5473C8.25494 29.5473 8.66197 28.593 7.43497 28.382V28.3492C7.43497 28.0582 7.19795 27.8215 6.90695 27.8215C6.61595 27.8215 6.37897 28.0582 6.37897 28.3492V28.4493C5.86497 28.6358 5.57394 29.0598 5.57394 29.6352C5.57394 30.5234 6.21995 30.7659 6.69095 30.9429C7.13995 31.1117 7.29596 31.1856 7.29596 31.4913C7.29596 31.6824 7.24394 31.8593 6.87094 31.8593C6.32594 31.8593 6.39095 31.429 5.98395 31.429C5.69595 31.429 5.48096 31.7137 5.48096 31.9684C5.48096 32.3291 5.85597 32.6716 6.37897 32.8104V32.8499C6.37897 33.1408 6.61595 33.3776 6.90695 33.3776C7.19795 33.3776 7.43497 33.1409 7.43497 32.8499V32.7966C8.00097 32.6146 8.33295 32.1271 8.33295 31.4602C8.33295 29.8778 6.61194 30.1154 6.61194 29.6041Z" fill="#6ED3C1"/>
</svg>
