<svg width="34" height="38" viewBox="0 0 34 38" fill="none" xmlns="http://www.w3.org/2000/svg">
<path d="M10.235 16.1114C10.581 18.3617 12.32 21.2256 15.176 22.2327C16.348 22.6418 17.631 22.6497 18.803 22.2248C21.612 21.2098 23.406 18.3538 23.76 16.1114C24.137 16.08 24.633 15.5528 25.168 13.6566C25.9 11.0681 25.121 10.6826 24.46 10.7455C24.586 10.3915 24.68 10.0295 24.743 9.6833C25.861 2.972 22.556 2.7438 22.556 2.7438C22.556 2.7438 22.005 1.68954 20.565 0.894876C19.598 0.320516 18.252 -0.120084 16.482 0.0294063C15.908 0.0530063 15.365 0.171026 14.853 0.336256C14.2 0.556556 13.602 0.879136 13.059 1.2568C12.399 1.6738 11.769 2.1931 11.218 2.7832C10.345 3.6801 9.566 4.8367 9.228 6.2765C8.945 7.3544 9.00699 8.4796 9.24399 9.6912C9.30599 10.0453 9.40101 10.3993 9.52701 10.7534C8.86601 10.6904 8.087 11.076 8.819 13.6645C9.362 15.5528 9.85699 16.08 10.235 16.1114Z" fill="#6ACFC8"/>
<path d="M29.974 24.915C25.953 23.8922 22.688 21.5947 22.688 21.5947L20.139 29.6593L19.659 31.1778L19.651 31.1542L19.234 32.4446L17.888 28.6286C21.193 24.018 17.22 24.0653 16.999 24.0731C16.779 24.0653 12.806 24.018 16.11 28.6286L14.765 32.4446L14.348 31.1542L14.34 31.1778L13.86 29.6593L11.303 21.5947C11.303 21.5947 8.038 23.8922 4.017 24.915C1.02 25.6782 0.878001 29.1401 0.996001 30.8474C0.996001 30.8474 1.16901 33.1684 1.34201 34.1913C1.34201 34.1913 7.19599 37.9915 16.999 37.9993C26.803 37.9993 32.656 34.1913 32.656 34.1913C32.83 33.1684 33.003 30.8474 33.003 30.8474C33.113 29.1401 32.971 25.6782 29.974 24.915Z" fill="#6ACFC8"/>
</svg>
