<svg width="34" height="34" viewBox="0 0 34 34" fill="none" xmlns="http://www.w3.org/2000/svg">
<path d="M30.7359 3.66241H27.9729V2.55741C27.9729 1.97131 27.7399 1.40921 27.3259 0.994712C26.9109 0.580212 26.3489 0.347412 25.7629 0.347412C25.1769 0.347412 24.6149 0.580212 24.2009 0.994712C23.7859 1.40921 23.5529 1.97131 23.5529 2.55741V3.66241H19.1329V2.55741C19.1329 1.97131 18.8999 1.40921 18.4859 0.994712C18.0719 0.580212 17.5089 0.347412 16.9229 0.347412C16.3369 0.347412 15.7749 0.580212 15.3609 0.994712C14.9459 1.40921 14.713 1.97131 14.713 2.55741V3.66241H10.2929V2.55741C10.2929 1.97131 10.0599 1.40921 9.64594 0.994712C9.23194 0.580212 8.66895 0.347412 8.08295 0.347412C7.49695 0.347412 6.93494 0.580212 6.52094 0.994712C6.10594 1.40921 5.87292 1.97131 5.87292 2.55741V3.66241H3.1109C2.3779 3.66241 1.6759 3.95341 1.1579 4.47151C0.638898 4.98961 0.3479 5.69221 0.3479 6.42491V28.5247C0.3479 29.2574 0.638898 29.96 1.1579 30.4781C1.6759 30.9962 2.3779 31.2872 3.1109 31.2872H18.5809C18.7269 31.2872 18.8679 31.229 18.9709 31.1254C19.0749 31.0218 19.1329 30.8812 19.1329 30.7347C19.1329 30.5882 19.0749 30.4476 18.9709 30.344C18.8679 30.2404 18.7269 30.1822 18.5809 30.1822H3.1109C2.6719 30.1809 2.25094 30.0059 1.93994 29.6953C1.62994 29.3847 1.45494 28.9639 1.45294 28.5247V11.3973H32.3929V20.7898C32.3929 20.9363 32.4509 21.0768 32.5549 21.1804C32.6589 21.2841 32.7989 21.3423 32.9459 21.3423C33.0919 21.3423 33.2329 21.2841 33.3359 21.1804C33.4399 21.0768 33.4979 20.9363 33.4979 20.7898V6.42491C33.4979 5.69221 33.2069 4.98961 32.6889 4.47151C32.1709 3.95341 31.4679 3.66241 30.7359 3.66241ZM24.6579 2.55741C24.6579 2.26431 24.7749 1.98331 24.9819 1.77601C25.1889 1.56881 25.4699 1.45241 25.7629 1.45241C26.0559 1.45241 26.3369 1.56881 26.5449 1.77601C26.7519 1.98331 26.8679 2.26431 26.8679 2.55741V5.87241C26.8679 6.16541 26.7519 6.44651 26.5449 6.65371C26.3369 6.86091 26.0559 6.97741 25.7629 6.97741C25.4699 6.97741 25.1889 6.86091 24.9819 6.65371C24.7749 6.44651 24.6579 6.16541 24.6579 5.87241V2.55741ZM15.8179 2.55741C15.8179 2.26431 15.9349 1.98331 16.1419 1.77601C16.3489 1.56881 16.6299 1.45241 16.9229 1.45241C17.2159 1.45241 17.4969 1.56881 17.7049 1.77601C17.9119 1.98331 18.028 2.26431 18.028 2.55741V5.87241C18.028 6.16541 17.9119 6.44651 17.7049 6.65371C17.4969 6.86091 17.2159 6.97741 16.9229 6.97741C16.6299 6.97741 16.3489 6.86091 16.1419 6.65371C15.9349 6.44651 15.8179 6.16541 15.8179 5.87241V2.55741ZM6.97791 2.55741C6.97791 2.26431 7.09494 1.98331 7.30194 1.77601C7.50894 1.56881 7.78995 1.45241 8.08295 1.45241C8.37595 1.45241 8.65693 1.56881 8.86493 1.77601C9.07193 1.98331 9.18793 2.26431 9.18793 2.55741V5.87241C9.18793 6.16541 9.07193 6.44651 8.86493 6.65371C8.65693 6.86091 8.37595 6.97741 8.08295 6.97741C7.78995 6.97741 7.50894 6.86091 7.30194 6.65371C7.09494 6.44651 6.97791 6.16541 6.97791 5.87241V2.55741ZM32.3929 10.2923H1.45294V6.42491C1.45494 5.98571 1.62994 5.56491 1.93994 5.25431C2.25094 4.94371 2.6719 4.76871 3.1109 4.76741H5.87292V5.87241C5.87292 6.45851 6.10594 7.02061 6.52094 7.43511C6.93494 7.84951 7.49695 8.08241 8.08295 8.08241C8.66895 8.08241 9.23194 7.84951 9.64594 7.43511C10.0599 7.02061 10.2929 6.45851 10.2929 5.87241V4.76741H14.713V5.87241C14.713 6.45851 14.9459 7.02061 15.3609 7.43511C15.7749 7.84951 16.3369 8.08241 16.9229 8.08241C17.5089 8.08241 18.0719 7.84951 18.4859 7.43511C18.8999 7.02061 19.1329 6.45851 19.1329 5.87241V4.76741H23.5529V5.87241C23.5529 6.45851 23.7859 7.02061 24.2009 7.43511C24.6149 7.84951 25.1769 8.08241 25.7629 8.08241C26.3489 8.08241 26.9109 7.84951 27.3259 7.43511C27.7399 7.02061 27.9729 6.45851 27.9729 5.87241V4.76741H30.7359C31.1749 4.76871 31.5959 4.94371 31.9059 5.25431C32.2169 5.56491 32.3919 5.98571 32.3929 6.42491V10.2923Z" fill="#6ED3C1"/>
<path d="M15.8189 15.2648C15.8189 14.9717 15.7019 14.6907 15.4949 14.4834C15.2879 14.2762 15.0069 14.1598 14.7139 14.1598H12.5039C12.2109 14.1598 11.9299 14.2762 11.7219 14.4834C11.5149 14.6907 11.3989 14.9717 11.3989 15.2648V16.9223C11.3989 17.2153 11.5149 17.4964 11.7219 17.7036C11.9299 17.9108 12.2109 18.0273 12.5039 18.0273H14.7139C15.0069 18.0273 15.2879 17.9108 15.4949 17.7036C15.7019 17.4964 15.8189 17.2153 15.8189 16.9223V15.2648ZM12.5039 16.9223V15.2648H14.7139V16.9223H12.5039Z" fill="#6ED3C1"/>
<path d="M9.18805 15.2648C9.18805 14.9717 9.07107 14.6907 8.86407 14.4834C8.65707 14.2762 8.37607 14.1598 8.08307 14.1598H5.87305C5.58005 14.1598 5.29906 14.2762 5.09106 14.4834C4.88406 14.6907 4.76807 14.9717 4.76807 15.2648V16.9223C4.76807 17.2153 4.88406 17.4964 5.09106 17.7036C5.29906 17.9108 5.58005 18.0273 5.87305 18.0273H8.08307C8.37607 18.0273 8.65707 17.9108 8.86407 17.7036C9.07107 17.4964 9.18805 17.2153 9.18805 16.9223V15.2648ZM5.87305 16.9223V15.2648H8.08307V16.9223H5.87305Z" fill="#6ED3C1"/>
<path d="M27.971 18.0273C28.265 18.0273 28.546 17.9108 28.753 17.7036C28.96 17.4964 29.076 17.2153 29.076 16.9223V15.2648C29.076 14.9717 28.96 14.6907 28.753 14.4834C28.546 14.2762 28.265 14.1598 27.971 14.1598H25.762C25.468 14.1598 25.187 14.2762 24.98 14.4834C24.773 14.6907 24.657 14.9717 24.657 15.2648V16.9223C24.657 17.2153 24.773 17.4964 24.98 17.7036C25.187 17.9108 25.468 18.0273 25.762 18.0273H27.971ZM25.762 15.2648H27.971V16.9223H25.762V15.2648Z" fill="#6ED3C1"/>
<path d="M15.8189 20.237C15.8189 19.9439 15.7019 19.6629 15.4949 19.4557C15.2879 19.2484 15.0069 19.132 14.7139 19.132H12.5039C12.2109 19.132 11.9299 19.2484 11.7219 19.4557C11.5149 19.6629 11.3989 19.9439 11.3989 20.237V21.8945C11.3989 22.1876 11.5149 22.4686 11.7219 22.6758C11.9299 22.8831 12.2109 22.9995 12.5039 22.9995H14.7139C15.0069 22.9995 15.2879 22.8831 15.4949 22.6758C15.7019 22.4686 15.8189 22.1876 15.8189 21.8945V20.237ZM12.5039 21.8945V20.237H14.7139V21.8945H12.5039Z" fill="#6ED3C1"/>
<path d="M9.18805 20.237C9.18805 19.9439 9.07107 19.6629 8.86407 19.4557C8.65707 19.2484 8.37607 19.132 8.08307 19.132H5.87305C5.58005 19.132 5.29906 19.2484 5.09106 19.4557C4.88406 19.6629 4.76807 19.9439 4.76807 20.237V21.8945C4.76807 22.1876 4.88406 22.4686 5.09106 22.6758C5.29906 22.8831 5.58005 22.9995 5.87305 22.9995H8.08307C8.37607 22.9995 8.65707 22.8831 8.86407 22.6758C9.07107 22.4686 9.18805 22.1876 9.18805 21.8945V20.237ZM5.87305 21.8945V20.237H8.08307V21.8945H5.87305Z" fill="#6ED3C1"/>
<path d="M14.7139 24.1048H12.5039C12.2109 24.1048 11.9299 24.2212 11.7219 24.4284C11.5149 24.6357 11.3989 24.9167 11.3989 25.2098V26.8673C11.3989 27.1603 11.5149 27.4414 11.7219 27.6486C11.9299 27.8559 12.2109 27.9723 12.5039 27.9723H14.7139C15.0069 27.9723 15.2879 27.8559 15.4949 27.6486C15.7019 27.4414 15.8189 27.1603 15.8189 26.8673V25.2098C15.8189 24.9167 15.7019 24.6357 15.4949 24.4284C15.2879 24.2212 15.0069 24.1048 14.7139 24.1048ZM12.5039 26.8673V25.2098H14.7139V26.8673H12.5039Z" fill="#6ED3C1"/>
<path d="M19.134 18.0273H21.3441C21.6371 18.0273 21.9181 17.9108 22.1251 17.7036C22.3331 17.4964 22.449 17.2153 22.449 16.9223V15.2648C22.449 14.9717 22.3331 14.6907 22.1251 14.4834C21.9181 14.2762 21.6371 14.1598 21.3441 14.1598H19.134C18.841 14.1598 18.56 14.2762 18.353 14.4834C18.145 14.6907 18.0291 14.9717 18.0291 15.2648V16.9223C18.0291 17.2153 18.145 17.4964 18.353 17.7036C18.56 17.9108 18.841 18.0273 19.134 18.0273ZM19.134 15.2648H21.3441V16.9223H19.134V15.2648Z" fill="#6ED3C1"/>
<path d="M18.0291 21.8945C18.0291 22.1876 18.145 22.4686 18.353 22.6758C18.56 22.8831 18.841 22.9995 19.134 22.9995C19.281 22.9995 19.421 22.9413 19.525 22.8377C19.628 22.7341 19.6871 22.5935 19.6871 22.447C19.6871 22.3005 19.628 22.1599 19.525 22.0563C19.421 21.9527 19.281 21.8945 19.134 21.8945V20.237H21.3441C21.4911 20.237 21.631 20.1788 21.735 20.0752C21.838 19.9716 21.897 19.831 21.897 19.6845C21.897 19.538 21.838 19.3975 21.735 19.2938C21.631 19.1902 21.4911 19.132 21.3441 19.132H19.134C18.841 19.132 18.56 19.2484 18.353 19.4557C18.145 19.6629 18.0291 19.9439 18.0291 20.237V21.8945Z" fill="#6ED3C1"/>
<path d="M8.08307 24.1049H5.87305C5.58005 24.1049 5.29906 24.2213 5.09106 24.4285C4.88406 24.6357 4.76807 24.9168 4.76807 25.2098V26.8673C4.76807 27.1604 4.88406 27.4415 5.09106 27.6487C5.29906 27.8559 5.58005 27.9723 5.87305 27.9723H8.08307C8.37607 27.9723 8.65707 27.8559 8.86407 27.6487C9.07107 27.4415 9.18805 27.1604 9.18805 26.8673V25.2098C9.18805 24.9168 9.07107 24.6357 8.86407 24.4285C8.65707 24.2213 8.37607 24.1049 8.08307 24.1049ZM5.87305 26.8673V25.2098H8.08307V26.8673H5.87305Z" fill="#6ED3C1"/>
<path d="M26.316 19.132C24.895 19.132 23.506 19.5533 22.325 20.3425C21.144 21.1317 20.223 22.2534 19.68 23.5659C19.136 24.8783 18.994 26.3224 19.271 27.7157C19.548 29.109 20.232 30.3887 21.237 31.3932C22.241 32.3977 23.521 33.0818 24.914 33.3589C26.308 33.636 27.752 33.4938 29.064 32.9502C30.377 32.4066 31.498 31.486 32.288 30.3048C33.077 29.1237 33.498 27.735 33.498 26.3145C33.496 24.4102 32.738 22.5846 31.392 21.2381C30.045 19.8916 28.22 19.1342 26.316 19.132ZM26.316 32.3919C25.114 32.3919 23.939 32.0355 22.939 31.3677C21.94 30.6999 21.161 29.7507 20.701 28.6402C20.241 27.5297 20.12 26.3077 20.355 25.1288C20.589 23.9499 21.168 22.867 22.018 22.0171C22.868 21.1671 23.951 20.5883 25.13 20.3538C26.309 20.1193 27.531 20.2396 28.641 20.6996C29.752 21.1596 30.701 21.9386 31.369 22.938C32.037 23.9374 32.393 25.1125 32.393 26.3145C32.391 27.9257 31.75 29.4704 30.611 30.6098C29.472 31.7491 27.927 32.39 26.316 32.3919Z" fill="#6ED3C1"/>
<path d="M29.509 23.999L25.2111 28.2963L23.2581 26.3427C23.1541 26.242 23.0151 26.1863 22.8701 26.1876C22.7251 26.1888 22.5861 26.2469 22.4841 26.3494C22.3811 26.4518 22.323 26.5904 22.322 26.7353C22.321 26.8801 22.3761 27.0197 22.4771 27.1239L24.8211 29.4681C24.9241 29.5717 25.0651 29.6299 25.2111 29.6299C25.3581 29.6299 25.4981 29.5717 25.6021 29.4681L30.2901 24.7802C30.3911 24.676 30.4461 24.5364 30.4451 24.3916C30.4441 24.2467 30.386 24.1081 30.283 24.0057C30.181 23.9033 30.042 23.8451 29.897 23.8439C29.753 23.8426 29.613 23.8983 29.509 23.999Z" fill="#6ED3C1"/>
</svg>
