<svg width="70.000000" height="70.000000" viewBox="0 0 70 70" fill="none" xmlns="http://www.w3.org/2000/svg" xmlns:xlink="http://www.w3.org/1999/xlink">
	<desc>
			Created with Pixso.
	</desc>
	<defs>
		<clipPath id="clip2_1352">
			<rect id="003-saving" width="30.000000" height="30.000000" transform="translate(20.000000 20.000000)" fill="white" fill-opacity="0"/>
		</clipPath>
	</defs>
	<circle id="Ellipse 22" cx="35.000000" cy="35.000000" r="35.000000" fill="#DCFAF8" fill-opacity="1.000000"/>
	<rect id="003-saving" width="30.000000" height="30.000000" transform="translate(20.000000 20.000000)" fill="#FFFFFF" fill-opacity="0"/>
	<g clip-path="url(#clip2_1352)">
		<path id="Vector" d="M47.98 34.36L46.19 34.36C45.79 33.22 45.13 32.21 44.29 31.38L47.05 30.16C47.44 29.99 47.65 29.55 47.54 29.14C47.21 27.91 46.09 27 44.76 27L42.49 27C41.18 27 40.08 27.87 39.73 29.07L37.33 29.07C36.43 32.39 33.39 34.85 29.79 34.85C27.59 34.85 25.6 33.93 24.18 32.46C23.77 33.04 23.45 33.66 23.21 34.33C22.49 34.17 21.9 33.6 21.73 32.86C21.63 32.39 21.16 32.09 20.68 32.2C20.21 32.3 19.91 32.77 20.02 33.25C20.2 34.05 20.65 34.78 21.29 35.31C21.73 35.66 22.25 35.91 22.79 36.04C22.75 36.37 22.73 36.71 22.73 37.06L22.73 37.91C22.73 41.14 24.64 43.93 27.38 45.19L27.38 47.12C27.38 48.18 28.23 49.03 29.29 49.03C30.34 49.03 31.2 48.18 31.2 47.12L31.2 45.91L38.35 45.91L38.35 47.12C38.35 48.18 39.2 49.03 40.26 49.03C41.31 49.03 42.16 48.18 42.16 47.12L42.16 45.11C44.17 44.14 45.71 42.34 46.34 40.15L47.98 40.15C49.09 40.15 50 39.24 50 38.12L50 36.39C50 35.27 49.09 34.36 47.98 34.36ZM41.49 34.87C41.01 34.87 40.62 34.48 40.62 33.99C40.62 33.51 41.01 33.12 41.49 33.12C41.98 33.12 42.37 33.51 42.37 33.99C42.37 34.48 41.98 34.87 41.49 34.87Z" fill="#16DBCC" fill-opacity="1.000000" fill-rule="nonzero"/>
		<path id="Vector" d="M29.79 20.96C26.45 20.96 23.73 23.68 23.73 27.02C23.73 30.37 26.45 33.09 29.79 33.09C33.13 33.09 35.84 30.37 35.84 27.02C35.84 23.68 33.13 20.96 29.79 20.96ZM29.22 26.1L30.35 26.1C31.62 26.1 32.65 27.13 32.65 28.4C32.65 29.56 31.79 30.53 30.67 30.68L30.67 31.01C30.67 31.5 30.27 31.89 29.79 31.89C29.3 31.89 28.91 31.5 28.91 31.01L28.91 30.7L28.68 30.7C27.71 30.7 26.92 29.91 26.92 28.94C26.92 28.46 27.32 28.06 27.8 28.06C28.29 28.06 28.68 28.46 28.68 28.94L30.35 28.95C30.65 28.95 30.89 28.7 30.89 28.4C30.89 28.1 30.65 27.85 30.35 27.85L29.22 27.85C27.95 27.85 26.92 26.82 26.92 25.55C26.92 24.39 27.79 23.43 28.91 23.27L28.91 23.04C28.91 22.55 29.3 22.16 29.79 22.16C30.27 22.16 30.67 22.55 30.67 23.04L30.67 23.25L30.89 23.25C31.86 23.25 32.65 24.04 32.65 25.01C32.65 25.5 32.26 25.89 31.77 25.89C31.29 25.89 30.89 25.5 30.89 25.01C30.89 25.01 30.89 25.01 30.89 25.01L29.22 25.01C28.92 25.01 28.68 25.25 28.68 25.55C28.68 25.85 28.92 26.1 29.22 26.1Z" fill="#16DBCC" fill-opacity="1.000000" fill-rule="nonzero"/>
	</g>
</svg>
