<svg width="70.000000" height="70.000000" viewBox="0 0 70 70" fill="none" xmlns="http://www.w3.org/2000/svg" xmlns:xlink="http://www.w3.org/1999/xlink">
	<desc>
			Created with Pixso.
	</desc>
	<defs/>
	<circle id="Ellipse 25" cx="35.000000" cy="35.000000" r="35.000000" fill="#E7EDFF" fill-opacity="1.000000"/>
	<path id="Vector" d="M37.68 34.84C41.77 34.84 45.1 31.51 45.1 27.42C45.1 23.32 41.77 20 37.68 20C33.59 20 30.26 23.32 30.26 27.42C30.26 31.51 33.59 34.84 37.68 34.84ZM36.8 23.05L36.8 22.85C36.8 22.37 37.2 21.97 37.68 21.97C38.17 21.97 38.56 22.37 38.56 22.85L38.56 23.06C39.61 23.28 40.39 24.21 40.39 25.32C40.39 25.81 40 26.2 39.52 26.2C39.03 26.2 38.64 25.81 38.64 25.32C38.64 25.01 38.38 24.76 38.07 24.76L37.29 24.76C36.98 24.76 36.72 25.01 36.72 25.32C36.72 25.5 36.81 25.67 36.95 25.78L37.68 26.32L39.46 27.63C40.04 28.06 40.39 28.75 40.4 29.48L40.4 29.49C40.4 30.11 40.17 30.69 39.73 31.13C39.41 31.46 39 31.68 38.56 31.77L38.56 31.98C38.56 32.47 38.17 32.86 37.68 32.86C37.2 32.86 36.8 32.47 36.8 31.98L36.8 31.78C36.37 31.69 35.98 31.48 35.66 31.16C35.22 30.72 34.98 30.14 34.97 29.52C34.97 29.04 35.36 28.64 35.84 28.64L35.85 28.64C36.33 28.64 36.73 29.03 36.73 29.51C36.73 29.82 36.97 30.07 37.29 30.07C37.78 30.07 37.6 30.07 38.08 30.07C38.39 30.06 38.64 29.81 38.64 29.5L38.64 29.49C38.64 29.32 38.55 29.15 38.41 29.04L37.68 28.5L35.91 27.19C35.32 26.75 34.97 26.06 34.97 25.32C34.97 24.21 35.75 23.28 36.8 23.05Z" fill="#396AFF" fill-opacity="1.000000" fill-rule="nonzero"/>
	<path id="Vector" d="M25.66 39.06C25.43 38.67 24.93 38.53 24.54 38.76L20.4 41.15C20.01 41.37 19.88 41.88 20.1 42.27L24.33 49.59C24.56 49.98 25.06 50.11 25.45 49.89L29.58 47.5C29.98 47.27 30.11 46.77 29.88 46.38L25.66 39.06Z" fill="#396AFF" fill-opacity="1.000000" fill-rule="nonzero"/>
	<path id="Vector" d="M49.35 37.6C48.95 37.05 48.18 36.92 47.63 37.32C45.95 38.53 42.74 40.84 42.48 41.03C42.36 41.13 42.24 41.22 42.11 41.3C41.61 41.62 41.02 41.79 40.41 41.79L36.2 41.79C35.71 41.79 35.32 41.39 35.32 40.91C35.32 40.42 35.71 40.03 36.2 40.03L40.7 40.03C41.36 40.03 41.89 39.48 41.86 38.82C41.84 38.19 41.3 37.7 40.67 37.7L37.24 37.7C37.01 37.45 36.76 37.23 36.48 37.03C35.55 36.34 34.39 35.93 33.14 35.93C30.91 35.93 28.69 37.33 27.77 39.21L31.37 45.43L38.11 45.43C39.44 45.43 40.74 45.1 41.89 44.44C42.29 44.21 42.71 43.93 43.17 43.6C45.11 42.21 49.06 39.32 49.07 39.32C49.62 38.92 49.74 38.15 49.35 37.6Z" fill="#396AFF" fill-opacity="1.000000" fill-rule="nonzero"/>
</svg>
