<svg width="26" height="26" viewBox="0 0 26 26" fill="none" xmlns="http://www.w3.org/2000/svg">
<g clip-path="url(#clip0_208_26)">
<path d="M22.9608 7.10888V6.75591C22.9608 5.13334 21.6306 3.81323 19.9956 3.81323H2.96522C1.33016 3.81328 0 5.13334 0 6.75591V7.10888H22.9608Z" fill="#B1B1B1"/>
<path d="M13.5651 16.5748C13.5651 15.0484 14.0598 13.5975 14.9731 12.4019H0V16.5066C0 18.1292 1.33016 19.4493 2.96522 19.4493H14.1911C13.7813 18.5585 13.5651 17.5832 13.5651 16.5748V16.5748ZM11.4804 15.6829H8.92125V14.171H11.4804V15.6829ZM3.41545 14.171H7.39781V15.6829H3.41545V14.171Z" fill="#B1B1B1"/>
<path d="M16.5547 10.89C17.7165 10.0833 19.0967 9.64871 20.5443 9.64871C21.3822 9.64871 22.1973 9.79471 22.9608 10.0737V8.62085H0V10.89H16.5547Z" fill="#B1B1B1"/>
<path d="M25.9998 16.5746C25.9998 13.5844 23.5572 11.1604 20.5441 11.1604C17.531 11.1604 15.0884 13.5844 15.0884 16.5746C15.0884 19.5648 17.531 21.9888 20.5441 21.9888C23.5572 21.9888 25.9998 19.5648 25.9998 16.5746ZM21.2795 19.4671V20.0823H20.5178V20.0824V20.0823H19.7561V19.4716C19.2956 19.3168 18.9188 19.0445 18.5508 18.7775L19.4501 17.5572C19.9445 17.916 20.1975 18.0884 20.5441 18.0884C20.7401 18.0884 20.8988 17.9959 20.9583 17.8468C21.0303 17.6664 20.9286 17.5002 20.6859 17.4022C20.6859 17.4022 19.5971 17.0418 19.0937 16.5325C18.6714 16.1052 18.537 15.503 18.6715 14.9302C18.8069 14.3534 19.1993 13.9024 19.7561 13.6772V13.0668H21.2795V13.6519C21.6664 13.7585 21.9939 13.9161 22.1822 14.0176L21.4554 15.3462C20.9735 15.0866 20.5301 15.0087 20.3576 15.0673C20.1902 15.124 20.1647 15.2324 20.1551 15.2732C20.1416 15.331 20.1343 15.4197 20.2274 15.5227C20.3171 15.6218 21.2603 16.002 21.2603 16.002C22.2781 16.4131 22.7571 17.4457 22.3746 18.4038C22.1759 18.9017 21.7759 19.2788 21.2795 19.4671V19.4671Z" fill="#B1B1B1"/>
</g>
<defs>
<clipPath id="clip0_208_26">
<rect width="26" height="25.8024" fill="white"/>
</clipPath>
</defs>
</svg>
