<svg width="70.000000" height="70.000000" viewBox="0 0 70 70" fill="none" xmlns="http://www.w3.org/2000/svg" xmlns:xlink="http://www.w3.org/1999/xlink">
	<desc>
			Created with Pixso.
	</desc>
	<defs>
		<clipPath id="clip2_1341">
			<rect id="money-tag 1" width="30.000000" height="30.000000" transform="translate(20.000000 20.000000)" fill="white" fill-opacity="0"/>
		</clipPath>
	</defs>
	<circle id="Ellipse 25" cx="35.000000" cy="35.000000" r="35.000000" fill="#FFF5D9" fill-opacity="1.000000"/>
	<rect id="money-tag 1" width="30.000000" height="30.000000" transform="translate(20.000000 20.000000)" fill="#FFFFFF" fill-opacity="0"/>
	<g clip-path="url(#clip2_1341)">
		<path id="Vector" d="M29.99 25.62L40 25.62L42.17 23.89C42.9 23.3 43.18 22.35 42.87 21.46C42.56 20.57 41.75 20 40.81 20L29.18 20C28.24 20 27.43 20.57 27.12 21.46C26.81 22.35 27.09 23.3 27.82 23.89L29.99 25.62Z" fill="#FFBB38" fill-opacity="1.000000" fill-rule="nonzero"/>
		<path id="Vector" d="M40.18 27.5L29.81 27.5C26.4 30.85 23.75 36.73 23.75 41.56C23.75 45.76 25.97 50 30.93 50L39.37 50C43.61 50 46.25 46.76 46.25 41.56C46.25 36.73 43.59 30.85 40.18 27.5ZM34.52 37.81L35.47 37.81C36.93 37.81 38.12 39 38.12 40.46C38.12 41.77 37.17 42.85 35.93 43.07L35.93 44.06C35.93 44.57 35.51 44.99 35 44.99C34.48 44.99 34.06 44.57 34.06 44.06L34.06 43.12L32.81 43.12C32.29 43.12 31.87 42.7 31.87 42.18C31.87 41.67 32.29 41.25 32.81 41.25L35.47 41.25C35.9 41.25 36.25 40.9 36.25 40.47C36.25 40.03 35.9 39.68 35.47 39.68L34.52 39.68C33.06 39.68 31.87 38.49 31.87 37.03C31.87 35.72 32.82 34.64 34.06 34.42L34.06 33.43C34.06 32.91 34.48 32.5 35 32.5C35.51 32.5 35.93 32.91 35.93 33.43L35.93 34.37L37.18 34.37C37.7 34.37 38.12 34.79 38.12 35.31C38.12 35.83 37.7 36.25 37.18 36.25L34.52 36.25C34.09 36.25 33.75 36.59 33.75 37.02C33.75 37.46 34.09 37.81 34.52 37.81Z" fill="#FFBB38" fill-opacity="1.000000" fill-rule="nonzero"/>
	</g>
</svg>
