<svg width="70.000000" height="70.000000" viewBox="0 0 70 70" fill="none" xmlns="http://www.w3.org/2000/svg" xmlns:xlink="http://www.w3.org/1999/xlink">
	<desc>
			Created with Pixso.
	</desc>
	<defs>
		<clipPath id="clip2_1366">
			<rect id="001-medical" width="30.000000" height="30.000000" transform="translate(20.000000 20.000000)" fill="white" fill-opacity="0"/>
		</clipPath>
	</defs>
	<circle id="Ellipse 24" cx="35.000000" cy="35.000000" r="35.000000" fill="#FFE0EB" fill-opacity="1.000000"/>
	<rect id="001-medical" width="30.000000" height="30.000000" transform="translate(20.000000 20.000000)" fill="#FFFFFF" fill-opacity="0"/>
	<g clip-path="url(#clip2_1366)">
		<path id="Vector" d="M45.13 20C43.41 20 42.02 21.39 42.02 23.1L42.02 32.37L47.36 32.37C47.84 32.37 48.23 31.98 48.23 31.49L48.23 23.1C48.23 21.39 46.84 20 45.13 20L45.13 20Z" fill="#FF82AC" fill-opacity="1.000000" fill-rule="nonzero"/>
		<path id="Vector" d="M30.62 42.08C30.62 36.78 34.94 32.4 40.32 32.42L40.32 23.48C40.32 22.14 40.82 20.92 41.65 20L26.15 20C23.73 20 21.76 21.97 21.76 24.39L21.76 49.1C21.76 49.89 22.72 50.28 23.27 49.71L24.39 48.53L25.58 49.72C25.92 50.06 26.48 50.06 26.82 49.72L27.95 48.6L29.09 49.72C29.43 50.06 29.98 50.06 30.33 49.72L31.48 48.58L32.64 49.72C32.98 50.06 33.53 50.06 33.87 49.72L34.1 49.5C31.92 47.68 30.62 44.99 30.62 42.08ZM28.87 27.08L30.6 27.08L30.6 25.35C30.6 24.86 30.99 24.47 31.48 24.47C31.96 24.47 32.36 24.86 32.36 25.35L32.36 27.08L34.09 27.08C34.58 27.08 34.97 27.48 34.97 27.96C34.97 28.45 34.58 28.84 34.09 28.84L32.36 28.84L32.36 30.58C32.36 31.06 31.96 31.46 31.48 31.46C30.99 31.46 30.6 31.06 30.6 30.58L30.6 28.84L28.87 28.84C28.38 28.84 27.99 28.45 27.99 27.96C27.99 27.48 28.38 27.08 28.87 27.08ZM26.21 33.24L32.12 33.24C32.61 33.24 33 33.63 33 34.12C33 34.6 32.61 35 32.12 35L26.21 35C25.72 35 25.33 34.6 25.33 34.12C25.33 33.63 25.72 33.24 26.21 33.24ZM29.14 42.02L26.2 42.02C25.71 42.02 25.32 41.63 25.32 41.14C25.32 40.66 25.71 40.27 26.2 40.27L29.14 40.27C29.62 40.27 30.02 40.66 30.02 41.14C30.02 41.63 29.62 42.02 29.14 42.02ZM29.72 38.51L26.2 38.51C25.72 38.51 25.32 38.12 25.32 37.63C25.32 37.15 25.72 36.76 26.2 36.76L29.72 36.76C30.21 36.76 30.6 37.15 30.6 37.63C30.6 38.12 30.21 38.51 29.72 38.51Z" fill="#FF82AC" fill-opacity="1.000000" fill-rule="nonzero"/>
		<path id="Vector" d="M40.29 34.17C35.93 34.17 32.38 37.72 32.38 42.08C32.38 46.45 35.93 50 40.29 50C44.65 50 48.2 46.45 48.2 42.08C48.2 37.72 44.65 34.17 40.29 34.17ZM41.17 45.47L41.17 45.55C41.17 46.04 40.78 46.43 40.29 46.43C39.81 46.43 39.41 46.04 39.41 45.55L39.41 45.54C39.02 45.44 38.65 45.29 38.36 45.1C37.96 44.83 37.84 44.29 38.11 43.88C38.38 43.48 38.92 43.36 39.33 43.63C39.69 43.86 40.28 43.95 40.57 43.82C40.76 43.73 40.91 43.54 40.93 43.36C40.97 42.97 40.36 42.75 40 42.61C39.45 42.39 38.76 42.12 38.36 41.4C37.79 40.37 38.29 39.02 39.41 38.56L39.41 38.52C39.41 38.03 39.81 37.64 40.29 37.64C40.77 37.64 41.16 38.02 41.17 38.5C41.49 38.6 41.78 38.76 42.01 38.98C42.37 39.3 42.39 39.86 42.06 40.22C41.73 40.57 41.18 40.6 40.82 40.27C40.68 40.13 40.23 40.08 40.04 40.21C39.91 40.3 39.85 40.47 39.9 40.55C40.09 40.88 41.06 41 41.79 41.57C43.3 42.74 42.77 44.86 41.17 45.47Z" fill="#FF82AC" fill-opacity="1.000000" fill-rule="nonzero"/>
	</g>
</svg>
