<svg width="60" height="60" viewBox="0 0 60 60" fill="none" xmlns="http://www.w3.org/2000/svg">
<rect width="60" height="60" rx="20" fill="#FAF6DC"/>
<path fill-rule="evenodd" clip-rule="evenodd" d="M21.5 27.1602V41.3302H39.91V27.1602H21.5ZM38.5 24.3302H41.33C41.7 24.3302 42.06 24.4802 42.33 24.7402C42.6 25.0102 42.75 25.3702 42.75 25.7502V42.7502C42.75 43.1202 42.6 43.4802 42.33 43.7502C42.06 44.0102 41.7 44.1602 41.33 44.1602H18.66C18.29 44.1602 17.93 44.0102 17.66 43.7502C17.39 43.4802 17.25 43.1202 17.25 42.7502V25.7502C17.25 25.3702 17.39 25.0102 17.66 24.7402C17.93 24.4802 18.29 24.3302 18.66 24.3302H21.5V22.9102C21.5 20.6602 22.39 18.5002 23.98 16.9002C25.58 15.3102 27.74 14.4102 30 14.4102C32.25 14.4102 34.41 15.3102 36.01 16.9002C37.6 18.5002 38.5 20.6602 38.5 22.9102V24.3302ZM35.66 24.3302V22.9102C35.66 21.4102 35.06 19.9702 34 18.9002C32.94 17.8402 31.5 17.2502 30 17.2502C28.49 17.2502 27.05 17.8402 25.99 18.9002C24.93 19.9702 24.33 21.4102 24.33 22.9102V24.3302H35.66ZM22.91 28.5802H25.75V31.4102H22.91V28.5802ZM22.91 32.8302H25.75V35.6602H22.91V32.8302ZM22.91 37.0802H25.75V39.9102H22.91V37.0802Z" fill="#FFE85C"/>
</svg>
