<svg width="60" height="60" viewBox="0 0 60 60" fill="none" xmlns="http://www.w3.org/2000/svg">
<rect width="60" height="60" rx="20" fill="#DCFAF8"/>
<path fill-rule="evenodd" clip-rule="evenodd" d="M32.1199 29.2902C32.1199 30.4602 31.1699 31.4102 29.9999 31.4102C28.8199 31.4102 27.8699 30.4602 27.8699 29.2902C27.8699 28.1102 28.8199 27.1602 29.9999 27.1602C31.1699 27.1602 32.1199 28.1102 32.1199 29.2902Z" fill="#16DBCC" fill-opacity="0.6"/>
<path fill-rule="evenodd" clip-rule="evenodd" d="M38.8798 24.3301H35.2798C33.9298 24.3301 32.8298 25.4301 32.8298 26.7801V31.4101C32.8298 32.1901 33.4598 32.8301 34.2498 32.8301V41.3301H39.9098V32.8301C40.6898 32.8301 41.3298 32.1901 41.3298 31.4101V26.7801C41.3298 25.4301 40.2298 24.3301 38.8798 24.3301Z" fill="#16DBCC" fill-opacity="0.6"/>
<path fill-rule="evenodd" clip-rule="evenodd" d="M39.91 21.5002C39.91 23.0602 38.64 24.3302 37.08 24.3302C35.51 24.3302 34.25 23.0602 34.25 21.5002C34.25 19.9302 35.51 18.6602 37.08 18.6602C38.64 18.6602 39.91 19.9302 39.91 21.5002Z" fill="#16DBCC" fill-opacity="0.6"/>
<path fill-rule="evenodd" clip-rule="evenodd" d="M24.7099 25.75H21.1099C19.7599 25.75 18.6599 26.84 18.6599 28.2C18.6599 29.55 19.7599 30.65 21.1099 30.65C22.4699 30.65 23.5599 29.55 23.5599 28.2C23.5599 26.84 22.4699 25.75 21.1099 25.75C19.7599 25.75 18.6599 26.84 18.6599 28.2V31.41C18.6599 32.19 19.2999 32.83 20.0799 32.83L18.6599 37.08H20.0799V41.33H25.7499V37.08H27.1599L25.7499 32.83C26.5299 32.83 27.1599 32.19 27.1599 31.41V28.2C27.1599 26.84 26.0599 25.75 24.7099 25.75Z" fill="#16DBCC" fill-opacity="0.6"/>
<path fill-rule="evenodd" clip-rule="evenodd" d="M25.7498 22.9101C25.7498 24.4801 24.4798 25.7501 22.9098 25.7501C21.3498 25.7501 20.0798 24.4801 20.0798 22.9101C20.0798 21.3501 21.3498 20.0801 22.9098 20.0801C24.4798 20.0801 25.7498 21.3501 25.7498 22.9101Z" fill="#16DBCC" fill-opacity="0.6"/>
<path fill-rule="evenodd" clip-rule="evenodd" d="M28.5799 37.0802V41.3302H31.4099V37.0802C32.1899 37.0802 32.8299 36.4402 32.8299 35.6602V33.4802C32.8299 32.3402 31.8999 31.4102 30.7599 31.4102H29.2299C28.0899 31.4102 27.1599 32.3402 27.1599 33.4802V35.6602C27.1599 36.4402 27.7999 37.0802 28.5799 37.0802Z" fill="#16DBCC" fill-opacity="0.6"/>
</svg>
