<svg width="60.000000" height="60.000000" viewBox="0 0 60 60" fill="none" xmlns="http://www.w3.org/2000/svg" xmlns:xlink="http://www.w3.org/1999/xlink">
	<desc>
			Created with Pixso.
	</desc>
	<defs>
		<filter id="filter_2_1259_dd" x="14.000000" y="18.000000" width="33.000000" height="33.000000" filterUnits="userSpaceOnUse" color-interpolation-filters="sRGB">
			<feFlood flood-opacity="0" result="BackgroundImageFix"/>
			<feColorMatrix in="SourceAlpha" type="matrix" values="0 0 0 0 0 0 0 0 0 0 0 0 0 0 0 0 0 0 127 0" result="hardAlpha"/>
			<feOffset dx="0" dy="4"/>
			<feGaussianBlur stdDeviation="1.33333"/>
			<feComposite in2="hardAlpha" operator="out" k2="-1" k3="1"/>
			<feColorMatrix type="matrix" values="0 0 0 0 0 0 0 0 0 0 0 0 0 0 0 0 0 0 0.25 0"/>
			<feBlend mode="normal" in2="BackgroundImageFix" result="effect_dropShadow_1"/>
			<feBlend mode="normal" in="SourceGraphic" in2="effect_dropShadow_1" result="shape"/>
		</filter>
		<clipPath id="clip134_1">
			<rect id="user2 1" width="25.000000" height="25.000000" transform="translate(18.000000 18.000000)" fill="white" fill-opacity="0"/>
		</clipPath>
	</defs>
	<path id="Убрать верхний слой" d="M20 0L40 0C51.0457 0 60 8.95428 60 20L60 40C60 51.0457 51.0457 60 40 60L20 60C8.95432 60 0 51.0457 0 40L0 20C0 8.95428 8.95432 0 20 0ZM34.5888 31.1817C36.3569 31.7918 37.9774 32.7997 39.3389 34.1611C41.6998 36.5221 43 39.6611 43 43L41.0469 43C41.0469 37.1844 36.3156 32.4531 30.5 32.4531C24.6844 32.4531 19.9531 37.1844 19.9531 43L18 43C18 39.6611 19.3002 36.5221 21.6612 34.1611C23.0226 32.7997 24.6432 31.7918 26.4112 31.1817C24.5175 29.8775 23.2734 27.6947 23.2734 25.2266C23.2734 21.2419 26.5153 18 30.5 18C34.4847 18 37.7266 21.2419 37.7266 25.2266C37.7266 27.6947 36.4825 29.8775 34.5888 31.1817ZM25.2266 25.2266C25.2266 28.1344 27.5922 30.5 30.5 30.5C33.4078 30.5 35.7734 28.1344 35.7734 25.2266C35.7734 22.3188 33.4078 19.9531 30.5 19.9531C27.5922 19.9531 25.2266 22.3188 25.2266 25.2266Z" clip-rule="evenodd" fill="#FFBB38" fill-opacity="1.000000" fill-rule="evenodd"/>
</svg>
