<svg fill="none" height="55" viewBox="0 0 60 60" width="55" xmlns="http://www.w3.org/2000/svg">
    <rect fill="#FFF5D9" height="60" rx="20" width="60"/>
    <g clip-path="url(#clip0_103_1260)">
        <path clip-rule="evenodd"
              d="M39.5401 39.7702L44.4801 45.0602C44.9001 45.5002 44.9001 46.2202 44.4901 46.6602C44.0701 47.1102 43.4001 47.1102 42.9801 46.6602L38.0401 41.3802C37.6201 40.9302 37.6201 40.2102 38.0401 39.7702C38.4501 39.3302 39.1201 39.3302 39.5401 39.7702ZM21.4001 13.3302L29.6501 22.1402C30.0601 22.5802 30.0601 23.3002 29.6501 23.7502L27.1001 26.4702L30.5401 30.1502L44.6301 15.0902C45.2001 14.4802 46.1701 14.7502 46.4001 15.5702C47.8901 20.9602 46.5301 26.7902 42.8401 30.8002C38.3101 35.6302 34.6301 37.7102 32.3901 38.1502C31.8101 38.2702 31.2601 37.8602 31.1501 37.2502C31.0401 36.6302 31.4201 36.0402 32.0001 35.9202C32.4001 35.8402 33.2401 35.5302 34.4601 34.8502C36.5401 33.6702 38.8601 31.8402 41.3301 29.2002C44.0301 26.2602 45.2701 22.1802 44.7601 18.1702L18.1101 46.6602C17.6901 47.1102 17.0201 47.1102 16.6001 46.6602C16.1901 46.2202 16.1901 45.5002 16.6001 45.0602L29.0401 31.7602L25.6001 28.0702L23.0501 30.8002C22.6401 31.2402 21.9701 31.2402 21.5501 30.8002L13.3101 21.9802C12.8901 21.5402 12.8901 20.8202 13.3101 20.3802C13.7201 19.9302 14.3901 19.9302 14.8101 20.3802L22.3001 28.3902L24.0901 26.4702L16.6001 18.4602C16.1901 18.0202 16.1901 17.3002 16.6001 16.8502C17.0201 16.4102 17.6901 16.4102 18.1101 16.8502L25.6001 24.8602L27.3901 22.9402L19.9001 14.9302C19.4901 14.4902 19.4901 13.7702 19.9001 13.3302C20.3201 12.8802 20.9901 12.8802 21.4001 13.3302Z"
              fill="#FFBB38"
              fill-rule="evenodd"/>
    </g>
    <defs>
        <clipPath id="clip0_103_1260">
            <rect fill="white" height="34" transform="translate(13 13)" width="34"/>
        </clipPath>
    </defs>
</svg>
