<svg width="60" height="60" viewBox="0 0 60 60" fill="none" xmlns="http://www.w3.org/2000/svg">
<rect width="60" height="60" rx="20" fill="#FFE0EB"/>
<path fill-rule="evenodd" clip-rule="evenodd" d="M23.625 41.625V42.6875C23.625 44.4468 22.197 45.875 20.4375 45.875C18.678 45.875 17.25 44.4468 17.25 42.6875V41.625C16.077 41.625 15.125 40.6729 15.125 39.5V31C13.952 31 13 30.0479 13 28.875V24.625C13 23.4522 13.952 22.5 15.125 22.5V20.375C15.125 16.856 17.981 14 21.5 14H38.5C42.019 14 44.875 16.856 44.875 20.375V22.5C46.048 22.5 47 23.4522 47 24.625V28.875C47 30.0479 46.048 31 44.875 31V39.5C44.875 40.6729 43.923 41.625 42.75 41.625V42.6875C42.75 44.4468 41.322 45.875 39.5625 45.875C37.803 45.875 36.375 44.4468 36.375 42.6875V41.625H23.625ZM40.625 26.75C40.625 27.9229 39.673 28.875 38.5 28.875H21.5C20.327 28.875 19.375 27.9229 19.375 26.75V20.375C19.375 19.2021 20.327 18.25 21.5 18.25H38.5C39.673 18.25 40.625 19.2021 40.625 20.375V26.75ZM23.625 35.25C23.625 34.0771 22.673 33.125 21.5 33.125C20.327 33.125 19.375 34.0771 19.375 35.25C19.375 36.4229 20.327 37.375 21.5 37.375C22.673 37.375 23.625 36.4229 23.625 35.25ZM38.5 33.125C39.673 33.125 40.625 34.0771 40.625 35.25C40.625 36.4229 39.673 37.375 38.5 37.375C37.327 37.375 36.375 36.4229 36.375 35.25C36.375 34.0771 37.327 33.125 38.5 33.125Z" fill="#FF82AC"/>
</svg>
