<svg width="60" height="60" viewBox="0 0 60 60" fill="none" xmlns="http://www.w3.org/2000/svg">
<rect width="60" height="60" rx="20" fill="#E7EDFF"/>
<g clip-path="url(#clip0_103_1237)">
<path d="M34.1601 15.7023C33.597 15.3353 33.6208 14.1929 33.6208 13C33.3552 13 33.1666 13 32.9548 13C32.9548 13.8317 32.8703 15.2008 32.6799 15.9005C32.1678 17.7846 31.1268 19.404 30 19.404C28.8736 19.404 27.8328 17.7848 27.32 15.9005C27.1287 15.2008 27.0456 13.8317 27.0456 13C26.8326 13 26.6449 13 26.3792 13C26.3792 14.1927 26.403 15.3351 25.84 15.7023C24.68 16.4583 23.4495 17.7487 23.4495 19.3949C23.4495 20.378 24.1077 21.1032 24.8382 23.1281C25.2507 24.2701 25.7093 25.8499 25.7093 26.8781C25.7145 26.8781 25.7256 26.8781 25.7326 26.8781L25.7308 26.8784C27.0107 27.0632 28.4617 27.1699 29.9999 27.1699C31.5377 27.1699 32.9893 27.0632 34.2684 26.8784L34.2675 26.8781C34.2743 26.8781 34.2852 26.8781 34.2905 26.8781C34.2905 25.8499 34.7495 24.2701 35.1615 23.1281C35.892 21.1032 36.5503 20.378 36.5503 19.3949C36.5506 17.7484 35.3193 16.458 34.1601 15.7023Z" fill="#0684BA"/>
<path d="M34.2899 26.8779H34.2692C32.9902 27.0631 31.5392 27.1691 29.9999 27.1691C28.4602 27.1691 27.0097 27.0631 25.7308 26.8779H25.7092C25.7092 26.8779 21.1837 38.9234 17.9036 44.3581C18.1601 45.205 19.4159 45.9489 20.8894 46.064C22.0094 46.1514 22.7659 45.9541 23.3867 46.0904C24.8489 46.4098 24.6819 46.9999 26.5145 46.9999C28.0394 46.9999 28.4878 46.3335 29.9998 46.3335C31.5121 46.3335 31.9606 46.9999 33.4854 46.9999C35.3175 46.9999 35.1509 46.41 36.6136 46.0904C37.2343 45.9544 37.9909 46.1514 39.1109 46.064C40.5843 45.949 41.84 45.2054 42.0964 44.3581C38.8158 38.9229 34.2899 26.8779 34.2899 26.8779Z" fill="#0575A5"/>
<path d="M28.8357 26.8779C28.8357 26.8779 25.6438 30.6925 25.84 34.7429C26.8903 32.7143 27.1604 35.3609 28.3796 35.1645C27.7006 31.7564 28.2809 28.8263 29.0273 27.0452C29.0086 26.9845 28.8357 26.8779 28.8357 26.8779Z" fill="white"/>
<path d="M28.8779 26.8809C28.8779 26.8809 30.708 29.0693 30.5967 31.3926C29.9942 30.2293 29.8384 31.7462 29.1393 31.6331C29.5287 29.679 29.1964 27.9991 28.7683 26.9777C28.778 26.9428 28.8779 26.8809 28.8779 26.8809Z" fill="white"/>
<path d="M34.2899 26.8779C34.2899 26.6909 34.3097 26.4808 34.3375 26.2627H34.2691L34.1809 26.2695C31.6136 26.6413 28.3872 26.6413 25.8193 26.2695L25.6634 26.2681C25.6906 26.4844 25.7096 26.6926 25.7096 26.8779C25.7096 26.8779 25.6256 27.1022 25.4761 27.4933H25.6872C27.0347 27.6859 28.4861 27.7837 30 27.7837C31.5147 27.7837 32.9655 27.6859 34.313 27.4933H34.5242C34.3745 27.1022 34.2899 26.8779 34.2899 26.8779Z" fill="#E1EFFA"/>
</g>
<defs>
<clipPath id="clip0_103_1237">
<rect width="34" height="34" fill="white" transform="translate(13 13)"/>
</clipPath>
</defs>
</svg>
