<svg width="34" height="36" viewBox="0 0 34 36" fill="none" xmlns="http://www.w3.org/2000/svg">
<path d="M32.9691 34.221H31.4551V12.228C31.4551 11.204 30.6221 10.371 29.5981 10.371H26.212C25.189 10.371 24.3561 11.204 24.3561 12.228V34.221H20.5101V22.192C20.5101 21.169 19.6771 20.336 18.6531 20.336H15.2681C14.2441 20.336 13.4111 21.169 13.4111 22.192V34.221H9.56506V27.992C9.56506 26.968 8.73207 26.135 7.70807 26.135H4.32208C3.29908 26.135 2.46606 26.968 2.46606 27.992V34.221H0.870056C0.488056 34.221 0.179077 34.53 0.179077 34.912C0.179077 35.293 0.488056 35.603 0.870056 35.603H32.9691C33.3511 35.603 33.66 35.293 33.66 34.912C33.66 34.53 33.3511 34.221 32.9691 34.221ZM8.18304 34.221H3.84705V27.992C3.84705 27.73 4.06008 27.516 4.32208 27.516H7.70807C7.97007 27.516 8.18304 27.73 8.18304 27.992V34.221ZM19.1281 34.221H14.7921V22.192C14.7921 21.93 15.005 21.717 15.267 21.717H18.6531C18.9151 21.717 19.1281 21.93 19.1281 22.192V34.221ZM30.0731 34.221H25.7371V12.228C25.7371 11.965 25.95 11.752 26.212 11.752H29.5981C29.8601 11.752 30.0731 11.965 30.0731 12.228V34.221Z" fill="#6ED3C1"/>
<path d="M31.4511 0.969055C31.4601 0.780055 31.3941 0.589068 31.2501 0.445068C31.1061 0.301068 30.9151 0.23408 30.7261 0.24408C30.7151 0.24408 30.7041 0.242065 30.6931 0.242065H26.5141C26.1331 0.242065 25.8241 0.552075 25.8241 0.933075C25.8241 1.31407 26.1331 1.62405 26.5141 1.62405H29.0941L22.2671 8.45108L19.6921 5.87607C19.5631 5.74707 19.3871 5.67407 19.2041 5.67407C19.0211 5.67407 18.8451 5.74707 18.7161 5.87607L6.30113 18.2921C6.03113 18.5611 6.03113 18.9991 6.30113 19.2681C6.43513 19.4031 6.61211 19.4711 6.78911 19.4711C6.96611 19.4711 7.14208 19.4031 7.27708 19.2681L19.2041 7.34106L21.7791 9.91608C22.0481 10.1861 22.4861 10.1861 22.7561 9.91608L30.0711 2.60007V4.93506C30.0711 5.31706 30.3801 5.62607 30.7621 5.62607C31.1431 5.62607 31.4521 5.31706 31.4521 4.93506V1.00208C31.4521 0.991075 31.4511 0.980055 31.4511 0.969055Z" fill="#6ED3C1"/>
<path d="M4.46002 21.88C4.84202 21.88 5.151 21.571 5.151 21.189C5.151 20.808 4.84202 20.499 4.46002 20.499C4.07902 20.499 3.77002 20.808 3.77002 21.189C3.77002 21.571 4.07902 21.88 4.46002 21.88Z" fill="#6ED3C1"/>
</svg>
