<svg width="25.000000" height="25.000000" viewBox="0 0 25 25" fill="none" xmlns="http://www.w3.org/2000/svg" xmlns:xlink="http://www.w3.org/1999/xlink">
	<desc>
			Created with Pixso.
	</desc>
	<defs/>
	<rect rx="-0.500000" width="24.000000" height="24.000000" transform="translate(0.500000 0.500000)" fill="#FFFFFF" fill-opacity="0"/>
	<path d="M12.79 10.41L19.58 3.63C20.25 2.95 21.34 2.95 22.02 3.63C22.69 4.3 22.69 5.39 22.02 6.07L15.23 12.85L22.02 19.63C22.68 20.29 22.68 21.36 22.02 22.02C21.36 22.68 20.29 22.68 19.63 22.02L12.85 15.23L6.07 22.02C5.39 22.69 4.3 22.69 3.63 22.02C2.95 21.34 2.95 20.25 3.63 19.58L10.41 12.79L3.63 6.01C2.97 5.35 2.97 4.28 3.63 3.63C4.28 2.97 5.35 2.97 6.01 3.63L12.79 10.41L12.79 10.41Z" fill="#6ACFC8" fill-opacity="1.000000" fill-rule="evenodd"/>
</svg>
