<svg width="38" height="38" viewBox="0 0 38 38" fill="none" xmlns="http://www.w3.org/2000/svg">
<mask id="mask0_15_69" style="mask-type:luminance" maskUnits="userSpaceOnUse" x="0" y="0" width="38" height="38">
<path d="M38 0H0V38H38V0Z" fill="white"/>
</mask>
<g mask="url(#mask0_15_69)">
<path d="M28.3289 9.9008C31.0629 9.9008 33.2799 7.6844 33.2799 4.9504C33.2799 2.2164 31.0629 0 28.3289 0C25.5949 0 23.3789 2.2164 23.3789 4.9504C23.3789 7.6844 25.5949 9.9008 28.3289 9.9008Z" fill="#6ED3C1"/>
<path d="M26.0879 28.7447L24.0029 20.5658C23.6319 19.1111 22.3179 18.0869 20.8109 18.0869H17.1899C15.6829 18.0869 14.3689 19.1111 13.9979 20.5658L11.9129 28.7447C11.6009 29.9619 12.5209 31.142 13.7759 31.142H15.3419V36.3521C15.3419 37.2576 16.0759 37.9998 16.9889 37.9998H21.0189C21.9249 37.9998 22.6669 37.265 22.6669 36.3521V31.142H24.2329C25.4799 31.142 26.3999 29.9619 26.0879 28.7447Z" fill="#6ED3C1"/>
<path d="M19.003 17.2262C21.024 17.2262 22.662 15.588 22.662 13.5672C22.662 11.5464 21.024 9.9082 19.003 9.9082C16.982 9.9082 15.344 11.5464 15.344 13.5672C15.344 15.588 16.982 17.2262 19.003 17.2262Z" fill="#6ED3C1"/>
<path d="M37.9189 25.4871L35.0989 14.4211C34.5939 12.4469 32.8199 11.0664 30.7869 11.0664H25.8879C25.1239 11.0664 24.4039 11.2594 23.7659 11.6082C24.0179 12.2094 24.1519 12.8699 24.1519 13.5676C24.1519 14.9035 23.6389 16.1207 22.8009 17.041C24.0849 17.6273 25.0789 18.7703 25.4429 20.2027L27.0609 26.5484L27.5289 28.3816C27.5579 28.493 27.5799 28.6117 27.5949 28.723C27.7359 29.6434 27.4909 30.5637 26.9119 31.3059C26.2669 32.1445 25.2799 32.6195 24.2259 32.6195H24.1439V36.3453C24.1439 36.6793 24.0919 36.9984 23.9959 37.3027C24.3959 37.7258 24.9749 37.993 25.6059 37.993H31.0609C32.2929 37.993 33.2879 36.9984 33.2879 35.7664V28.7156H35.4029C37.0949 28.723 38.3349 27.1273 37.9189 25.4871Z" fill="#6ED3C1"/>
<path d="M10.4709 28.3816L10.9389 26.5484L12.557 20.2027C12.921 18.7629 13.915 17.6273 15.199 17.041C14.361 16.1281 13.848 14.9035 13.848 13.5676C13.848 12.8773 13.9819 12.2168 14.2339 11.6082C13.5959 11.2594 12.8759 11.0664 12.1119 11.0664H7.21295C5.17995 11.0664 3.39795 12.4469 2.90095 14.4211L0.0809424 25.4871C-0.335058 27.1273 0.904949 28.723 2.59695 28.723H4.71195V35.7738C4.71195 37.0059 5.70694 38.0004 6.93894 38.0004H12.3939C13.0249 38.0004 13.5959 37.7332 14.0039 37.3102C13.9079 37.0059 13.856 36.6867 13.856 36.3527V32.627H13.7739C12.7129 32.627 11.733 32.1445 11.087 31.3133C10.509 30.5711 10.2709 29.6434 10.4049 28.7305C10.4199 28.6117 10.4419 28.493 10.4709 28.3816Z" fill="#6ED3C1"/>
<path d="M14.6179 4.96C14.6229 2.226 12.4109 0.00521072 9.67694 -0.000249276C6.94294 -0.00571928 4.72193 2.2062 4.71693 4.9402C4.71093 7.6743 6.92293 9.8951 9.65693 9.9005C12.3909 9.906 14.6119 7.6941 14.6179 4.96Z" fill="#6ED3C1"/>
</g>
</svg>
