<svg width="25" height="25" viewBox="0 0 25 25" fill="none" xmlns="http://www.w3.org/2000/svg">
<g clip-path="url(#clip0_208_15)">
<path d="M5.2085 22.7424C5.20915 23.2906 5.42885 23.8161 5.81941 24.2036C6.20997 24.5912 6.7395 24.8093 7.29183 24.8099H17.7085C18.2608 24.8093 18.7904 24.5912 19.1809 24.2036C19.5715 23.8161 19.7912 23.2906 19.7918 22.7424V21.8379H5.2085V22.7424Z" fill="#1E916F"/>
<path d="M19.7918 2.0675C19.7912 1.51936 19.5715 0.993864 19.1809 0.606274C18.7904 0.218683 18.2608 0.000649754 17.7085 0L7.29183 0C6.7395 0.000649754 6.20997 0.218683 5.81941 0.606274C5.42885 0.993864 5.20915 1.51936 5.2085 2.0675V3.10125H19.7918V2.0675Z" fill="#1E916F"/>
<path d="M24.7096 6.64966L21.5846 3.41919L20.0817 4.85093L21.3892 6.20256H19.7915V8.27006H21.5015L20.1125 9.59119L21.5539 11.0839L24.6789 8.11189C24.7777 8.01791 24.8569 7.90553 24.9119 7.78116C24.9669 7.6568 24.9967 7.52289 24.9996 7.38709C25.0024 7.2513 24.9783 7.11627 24.9285 6.98974C24.8788 6.8632 24.8044 6.74764 24.7096 6.64966Z" fill="#1E916F"/>
<path d="M16.6668 6.20251H19.7918V4.13501H5.2085V16.54H8.3335V18.6075H5.2085V20.675H19.7918V8.27001H16.6668V6.20251ZM15.6252 10.3375H11.9793C11.8412 10.3375 11.7087 10.392 11.611 10.4889C11.5134 10.5858 11.4585 10.7173 11.4585 10.8544C11.4585 10.9915 11.5134 11.1229 11.611 11.2199C11.7087 11.3168 11.8412 11.3713 11.9793 11.3713H13.021C13.6668 11.3706 14.2898 11.6081 14.7691 12.0377C15.2484 12.4673 15.5497 13.0582 15.6146 13.6959C15.6795 14.3336 15.5033 14.9724 15.1203 15.4884C14.7373 16.0044 14.1747 16.3608 13.5418 16.4883V17.5737H11.4585V16.54H9.37516V14.4725H13.021C13.1591 14.4725 13.2916 14.418 13.3893 14.3211C13.487 14.2242 13.5418 14.0927 13.5418 13.9556C13.5418 13.8185 13.487 13.6871 13.3893 13.5901C13.2916 13.4932 13.1591 13.4387 13.021 13.4387H11.9793C11.3335 13.4394 10.7105 13.2019 10.2312 12.7723C9.75197 12.3427 9.45063 11.7518 9.38573 11.1141C9.32083 10.4765 9.49699 9.83761 9.88001 9.3216C10.263 8.80559 10.8256 8.44923 11.4585 8.32169V7.23626H13.5418V8.27001H15.6252V10.3375Z" fill="#1E916F"/>
<path d="M3.49827 16.5399L4.88734 15.2188L3.44593 13.7261L0.320931 16.6981C0.222115 16.7921 0.142929 16.9045 0.0879011 17.0288C0.0328728 17.1532 0.00308028 17.2871 0.000226477 17.4229C-0.00262733 17.5587 0.0215135 17.6937 0.0712692 17.8203C0.121025 17.9468 0.19542 18.0624 0.290202 18.1603L3.4152 21.3908L4.91807 19.9591L3.61064 18.6074H5.2083V16.5399H3.49827Z" fill="#1E916F"/>
</g>
<defs>
<clipPath id="clip0_208_15">
<rect width="25" height="24.81" fill="white"/>
</clipPath>
</defs>
</svg>
