<svg width="25" height="25" viewBox="0 0 25 25" fill="none" xmlns="http://www.w3.org/2000/svg">
<path d="M24.3255 10.7911C24.3249 10.7906 24.3243 10.79 24.3238 10.7894L14.1257 0.669312C13.6911 0.237742 13.1131 0 12.4984 0C11.8837 0 11.3057 0.237553 10.8709 0.669123L0.678172 10.7841C0.674739 10.7875 0.671305 10.7911 0.667872 10.7945C-0.224767 11.6855 -0.223241 13.1311 0.672259 14.0198C1.08139 14.426 1.62174 14.6613 2.19947 14.6859C2.22293 14.6881 2.24658 14.6893 2.27043 14.6893H2.67688V22.1371C2.67688 23.6108 3.88519 24.81 5.37063 24.81H9.36042C9.76478 24.81 10.0928 24.4846 10.0928 24.0831V18.244C10.0928 17.5715 10.6441 17.0245 11.3217 17.0245H13.675C14.3527 17.0245 14.9039 17.5715 14.9039 18.244V24.0831C14.9039 24.4846 15.2318 24.81 15.6364 24.81H19.6262C21.1116 24.81 22.3199 23.6108 22.3199 22.1371V14.6893H22.6968C23.3113 14.6893 23.8893 14.4517 24.3243 14.0202C25.2208 13.1299 25.2212 11.6819 24.3255 10.7911V10.7911Z" fill="#B1B1B1"/>
</svg>
