<svg width="34" height="35" viewBox="0 0 34 35" fill="none" xmlns="http://www.w3.org/2000/svg">
<path d="M26.0607 20.8902V34.114C26.061 34.1955 26.0452 34.2763 26.0141 34.3517C25.983 34.4271 25.9374 34.4955 25.8797 34.5532C25.8221 34.6109 25.7536 34.6565 25.6782 34.6876C25.6028 34.7187 25.522 34.7345 25.4405 34.7342H20.1559C20.0744 34.7345 19.9936 34.7187 19.9182 34.6876C19.8429 34.6565 19.7744 34.6109 19.7167 34.5532C19.6591 34.4956 19.6134 34.4271 19.5823 34.3517C19.5512 34.2763 19.5354 34.1955 19.5357 34.114V20.8902C19.5354 20.8086 19.5512 20.7279 19.5823 20.6525C19.6134 20.5771 19.6591 20.5086 19.7167 20.451C19.7744 20.3933 19.8429 20.3476 19.9182 20.3166C19.9936 20.2855 20.0744 20.2696 20.1559 20.2699H25.4405C25.522 20.2696 25.6028 20.2855 25.6782 20.3166C25.7536 20.3476 25.8221 20.3933 25.8797 20.451C25.9374 20.5086 25.983 20.5771 26.0141 20.6525C26.0452 20.7279 26.061 20.8086 26.0607 20.8902ZM17.5074 17.6276H12.2167C12.1351 17.6273 12.0544 17.6432 11.979 17.6743C11.9036 17.7053 11.8351 17.751 11.7775 17.8087C11.7198 17.8663 11.6741 17.9348 11.6431 18.0102C11.612 18.0856 11.5961 18.1664 11.5964 18.2479V34.114C11.5969 34.2783 11.6624 34.4358 11.7786 34.552C11.8948 34.6682 12.0523 34.7337 12.2167 34.7342H17.5074C17.6718 34.7337 17.8293 34.6682 17.9455 34.552C18.0617 34.4358 18.1272 34.2783 18.1277 34.114V18.2479C18.128 18.1664 18.1121 18.0856 18.0811 18.0102C18.05 17.9348 18.0043 17.8663 17.9467 17.8087C17.889 17.751 17.8205 17.7053 17.7451 17.6743C17.6698 17.6432 17.589 17.6273 17.5074 17.6276ZM33.3797 9.68838H28.089C27.9246 9.68888 27.7671 9.75438 27.6509 9.87059C27.5347 9.98681 27.4692 10.1443 27.4687 10.3086V34.114C27.4692 34.2783 27.5347 34.4358 27.6509 34.552C27.7671 34.6682 27.9246 34.7337 28.089 34.7342H33.3797C33.5441 34.7338 33.7016 34.6683 33.8178 34.552C33.934 34.4358 33.9995 34.2783 34 34.114V10.3086C33.9995 10.1443 33.934 9.9868 33.8178 9.87058C33.7016 9.75436 33.5441 9.68886 33.3797 9.68838ZM9.5744 25.5607H4.28363C4.11928 25.5612 3.9618 25.6267 3.84559 25.7429C3.72937 25.8591 3.66387 26.0166 3.66338 26.1809V34.114C3.66387 34.2783 3.72937 34.4358 3.84559 34.552C3.9618 34.6682 4.11928 34.7337 4.28363 34.7342H9.5744C9.73875 34.7337 9.89623 34.6682 10.0124 34.552C10.1287 34.4358 10.1942 34.2783 10.1947 34.114V26.1809C10.1942 26.0166 10.1287 25.8591 10.0124 25.7429C9.89623 25.6267 9.73875 25.5612 9.5744 25.5607ZM2.18717 8.55332C2.18778 7.29433 2.56164 6.06378 3.26148 5.01722C3.96132 3.97067 4.95573 3.15508 6.119 2.67357C7.28227 2.19206 8.56219 2.06624 9.79696 2.312C11.0317 2.55777 12.1659 3.1641 13.0562 4.05434C13.9464 4.94458 14.5527 6.07877 14.7985 7.31354C15.0443 8.54831 14.9184 9.82822 14.4369 10.9915C13.9554 12.1548 13.1398 13.1492 12.0933 13.849C11.0467 14.5489 9.81617 14.9227 8.55718 14.9233C6.86809 14.9222 5.24851 14.2507 4.05414 13.0564C2.85978 11.862 2.18829 10.2424 2.18717 8.55332ZM9.30149 9.92408C9.30149 10.1223 9.22274 10.3124 9.08257 10.4526C8.94241 10.5927 8.7523 10.6715 8.55408 10.6715C8.35585 10.6715 8.16575 10.5927 8.02558 10.4526C7.88542 10.3124 7.80667 10.1223 7.80667 9.92408C7.80667 9.75958 7.74132 9.60181 7.625 9.48549C7.50868 9.36917 7.35092 9.30383 7.18642 9.30383C7.02192 9.30383 6.86415 9.36917 6.74783 9.48549C6.63151 9.60181 6.56616 9.75958 6.56616 9.92408C6.56884 10.3406 6.70189 10.7458 6.94662 11.0829C7.19135 11.42 7.53549 11.6719 7.93072 11.8035V12.6594C7.93072 12.8239 7.99607 12.9817 8.11239 13.098C8.22871 13.2143 8.38648 13.2797 8.55098 13.2797C8.71548 13.2797 8.87324 13.2143 8.98956 13.098C9.10588 12.9817 9.17123 12.8239 9.17123 12.6594V11.8035C9.62055 11.6575 10.003 11.3559 10.2498 10.9531C10.4966 10.5503 10.5916 10.0726 10.5175 9.60595C10.4435 9.13935 10.2054 8.71448 9.84602 8.40781C9.48664 8.10114 9.02962 7.93279 8.55718 7.93307C8.40909 7.93368 8.26416 7.89029 8.14078 7.8084C8.0174 7.72651 7.92112 7.60981 7.86416 7.47311C7.80721 7.33642 7.79215 7.18588 7.82089 7.04061C7.84963 6.89534 7.92088 6.76188 8.02559 6.65717C8.1303 6.55246 8.26376 6.48121 8.40903 6.45247C8.5543 6.42373 8.70484 6.43879 8.84153 6.49575C8.97823 6.5527 9.09493 6.64898 9.17682 6.77236C9.25871 6.89575 9.3021 7.04068 9.30149 7.18876C9.30149 7.35326 9.36683 7.51103 9.48315 7.62735C9.59947 7.74367 9.75724 7.80901 9.92174 7.80901C10.0862 7.80901 10.244 7.74367 10.3603 7.62735C10.4766 7.51103 10.542 7.35326 10.542 7.18876C10.541 6.77093 10.4079 6.36412 10.1617 6.02654C9.9155 5.68896 9.56879 5.43794 9.17123 5.30939V4.44724C9.17041 4.28274 9.10427 4.1253 8.98737 4.00956C8.87047 3.89382 8.71238 3.82926 8.54788 3.83009C8.38337 3.83091 8.22594 3.89704 8.1102 4.01395C7.99446 4.13085 7.9299 4.28894 7.93072 4.45344V5.30939C7.48199 5.45637 7.10049 5.75877 6.85498 6.16212C6.60947 6.56547 6.51608 7.04324 6.59165 7.50935C6.66721 7.97546 6.90676 8.39926 7.26713 8.70438C7.6275 9.00951 8.08499 9.1759 8.55718 9.17357C8.75537 9.17451 8.94508 9.25408 9.08464 9.3948C9.2242 9.53552 9.30219 9.72589 9.30149 9.92408ZM17.1097 8.55456C17.112 7.37707 16.8699 6.21192 16.3986 5.13287C16.3328 4.98202 16.2098 4.86348 16.0566 4.80333C15.9034 4.74319 15.7326 4.74635 15.5817 4.81214C15.4309 4.87792 15.3124 5.00094 15.2522 5.15412C15.1921 5.3073 15.1952 5.4781 15.261 5.62895C15.6957 6.62563 15.9028 7.70669 15.8671 8.79346C15.8315 9.88023 15.554 10.9454 15.0549 11.9114C14.5557 12.8775 13.8475 13.7201 12.9818 14.378C12.116 15.0359 11.1145 15.4925 10.0501 15.7146C8.98562 15.9367 7.88506 15.9187 6.82845 15.662C5.77184 15.4052 4.78576 14.9161 3.94195 14.2303C3.09814 13.5445 2.41783 12.6792 1.95052 11.6974C1.48321 10.7156 1.24066 9.64192 1.24051 8.55456C1.24051 8.39006 1.17516 8.23229 1.05884 8.11597C0.94252 7.99965 0.784756 7.93431 0.620254 7.93431C0.455752 7.93431 0.297989 7.99965 0.181668 8.11597C0.0653481 8.23229 0 8.39006 0 8.55456C0 10.8234 0.901313 12.9994 2.50566 14.6038C4.11001 16.2081 6.28597 17.1094 8.55485 17.1094C10.8237 17.1094 12.9997 16.2081 14.604 14.6038C16.2084 12.9994 17.1097 10.8234 17.1097 8.55456ZM8.55515 1.24052C9.6465 1.23847 10.7244 1.48155 11.7092 1.95179C12.6941 2.42204 13.5607 3.10747 14.2453 3.95747C14.2964 4.02088 14.3596 4.07357 14.4312 4.11255C14.5028 4.15152 14.5813 4.17601 14.6624 4.1846C14.7434 4.1932 14.8254 4.18574 14.9035 4.16265C14.9817 4.13955 15.0545 4.10128 15.1179 4.05003C15.1812 3.99877 15.2339 3.93552 15.2728 3.86391C15.3117 3.79229 15.3361 3.71372 15.3446 3.63266C15.3531 3.55161 15.3456 3.46968 15.3224 3.39154C15.2992 3.31341 15.2609 3.24061 15.2095 3.1773C14.4091 2.18318 13.3956 1.38156 12.2438 0.831622C11.092 0.281687 9.83146 -0.00251 8.55515 1.67014e-05C8.39064 1.67014e-05 8.23288 0.0653648 8.11656 0.181685C8.00024 0.298005 7.93489 0.455769 7.93489 0.620271C7.93489 0.784772 8.00024 0.942536 8.11656 1.05886C8.23288 1.17518 8.39064 1.24052 8.55515 1.24052Z" fill="#1E916F"/>
</svg>
