<svg width="48.000000" height="45.000000" viewBox="0 0 48 45" fill="none" xmlns="http://www.w3.org/2000/svg" xmlns:xlink="http://www.w3.org/1999/xlink">
	<desc>
			Created with Pixso.
	</desc>
	<defs>
		<clipPath id="clip110_32">
			<rect id="Menu" rx="-0.500000" width="47.000000" height="43.799995" transform="translate(0.500000 0.500000)" fill="white" fill-opacity="0"/>
		</clipPath>
	</defs>
	<g clip-path="url(#clip110_32)">
		<path id="Vector" d="M8.01 13.08C8.01 12.05 8.88 11.2 9.98 11.2L38.01 11.2C39.12 11.2 39.98 12 39.98 13.08C39.98 14.11 39.12 14.91 38.01 14.91L9.98 14.91C8.88 14.91 8.01 14.11 8.01 13.08ZM8.01 22.39C8.01 21.36 8.88 20.51 9.98 20.51L38.01 20.51C39.12 20.51 39.98 21.36 39.98 22.39C39.98 23.43 39.12 24.28 38.01 24.28L9.98 24.28C8.88 24.28 8.01 23.43 8.01 22.39ZM8.01 31.71C8.01 30.68 8.88 29.88 9.98 29.88L38.01 29.88C39.12 29.88 39.98 30.68 39.98 31.71C39.98 32.74 39.12 33.59 38.01 33.59L9.98 33.59C8.88 33.59 8.01 32.74 8.01 31.71Z" fill="#6ACFC8" fill-opacity="1.000000" fill-rule="evenodd"/>
	</g>
</svg>
