<svg width="100" height="100" viewBox="0 0 100 100" fill="none" xmlns="http://www.w3.org/2000/svg"><path d="M18.1 78.69L50 97.32l31.89-18.63V20.74l-31.9-3.29-31.88 3.29v57.95z" fill="#ACA1A1"/><path d="M50 100L16 80.14V19.5L50 16l34 3.5v60.64L50 100zM19.04 78.44L50 96.53l30.96-18.09V22.19L50 19l-30.96 3.19v56.25z" fill="#151841"/><path d="M79.87 56.76c-9.37 3.2-13.6 2.62-17.58 2.62-9.41 0-11.67 1.84-15.79 3.12-4 1.36-5.08.7-9.94 1.36-7.41 1-7.41 3.49-7.41 6.48s3.46 8.88 5.44 9.46c.99-11.45 16.81-9.65 20.77 1.5 2.48 6.97 0 16.44-12.86 12.95-5-2.75-11-6.75-15.44-9.75C15 71.12 17.2 50.66 21 42.31c7.27-15.94 17.32-18.43 26.72-16.94 9.4 1.5 14.34 7.48 15.82 7.48 1.49 0 2.08-3.45 4.06-3.94 1.97-.5 4.26 1.27 7.81.95 3.46-.32 4.67-.1 6.93 1.5 1.98.49 3.4 1.93 4.45 2.98 3.46 3.49 4.94 6.48 5.44 10.01.5 0 1.13.01.5 1.45-1.99 4.48-5.94 8.6-12.87 10.96z" fill="#F05B29"/><path fill-rule="evenodd" clip-rule="evenodd" d="M33.34 26.86c4.72-2.5 9.7-2.74 14.46-1.98 4.8.76 8.45 2.67 11.08 4.37 1 .65 1.85 1.27 2.56 1.78l.63.45c.4.3.74.52 1 .67.3.16.44.2.48.2.16 0 .35-.1.61-.38.25-.28.49-.66.77-1.11l.04-.06c.29-.46.61-.97 1-1.4.4-.44.89-.82 1.51-.98a4.27 4.27 0 011.76-.02c.52.08 1.06.23 1.6.38l.21.05c1.26.34 2.65.68 4.33.53 1.73-.16 2.96-.2 4.06.04 1.09.22 2 .7 3.12 1.49 2.07.55 3.55 2.05 4.57 3.07l.02.03c3.4 3.42 4.95 6.4 5.52 9.89h.04c.18.04.42.12.6.35.17.23.21.51.18.79s-.13.6-.3.98c-2.04 4.62-6.1 8.83-13.15 11.23a46.86 46.86 0 01-10.93 2.54c-2.05.19-3.74.16-5.28.13l-1.54-.02c-4.67 0-7.54.45-9.75 1.06-1.1.3-2.05.65-2.98 1l-.35.13c-.82.31-1.64.62-2.56.9-2.04.7-3.35.88-4.76.98L40.8 64c-1.1.06-2.37.11-4.17.36-3.69.5-5.37 1.34-6.17 2.31-.8.96-.81 2.14-.81 3.67 0 .66.2 1.53.54 2.49a18.44 18.44 0 003.09 5.34c.33.37.63.65.9.85a8.53 8.53 0 013.22-5.78 9.34 9.34 0 016.5-1.66c4.77.42 9.88 3.78 11.93 9.55 1.27 3.58 1.3 7.87-.73 10.85-2.09 3.05-6.18 4.53-12.73 2.76a.5.5 0 01-.1-.05c-5.03-2.76-11.05-6.78-15.5-9.78a.5.5 0 01-.08-.08c-6.12-6.8-8.61-15.37-9.1-23.28-.48-7.9 1.03-15.19 2.97-19.45 3.66-8.04 8.06-12.74 12.78-15.24zm.71 53.26a5.7 5.7 0 01-1.52-1.29 19.43 19.43 0 01-3.28-5.66c-.37-1.01-.6-2-.6-2.83v-.08c0-1.43 0-2.97 1.04-4.23 1.05-1.27 3.07-2.16 6.8-2.66 1.85-.25 3.17-.31 4.29-.37l1.04-.05c1.34-.09 2.57-.26 4.52-.92h.01c.89-.28 1.69-.58 2.5-.9l.36-.12c.94-.36 1.92-.72 3.07-1.03 2.3-.64 5.27-1.1 10-1.1.54 0 1.07 0 1.61.02 1.53.03 3.14.06 5.13-.13 2.68-.25 6.04-.9 10.7-2.48 6.8-2.33 10.64-6.34 12.56-10.7a2.51 2.51 0 00.22-.73 1.83 1.83 0 00-.28 0h-.05l-.12.01-.4.1-.78.2a41.98 41.98 0 01-4.51 1.06 27.33 27.33 0 01-13.03-.74l-.1-.03-.8-.25a6.65 6.65 0 00-1.57-.3c-.45-.02-.8.07-1.09.28-.29.2-.57.58-.8 1.26a.5.5 0 11-.95-.3 3.4 3.4 0 011.17-1.78c.52-.37 1.1-.48 1.7-.46.59.02 1.2.17 1.81.34l.83.26a123.96 123.96 0 011.04.31c4.35 1.22 8.45.98 11.61.43 1.58-.27 2.92-.62 3.94-.9l.47-.13a45.93 45.93 0 011.08-.29c-.54-3.2-1.99-5.98-5.23-9.24-.6-.6-1.3-1.3-2.12-1.87.5.76.86 1.54 1.2 2.29v.02c.62 1.37 1.2 2.64 2.59 3.81a.5.5 0 11-.64.77c-1.58-1.32-2.23-2.78-2.85-4.15v-.02c-.62-1.36-1.2-2.63-2.58-3.8a7.33 7.33 0 00-2.8-1.36c-.94-.2-2.04-.18-3.75-.03a9.33 9.33 0 00-3.57 1.55l-.56.36c-1.01.65-2.16 1.4-3.65 2.04a.5.5 0 01-.4-.92c1.41-.6 2.48-1.3 3.5-1.95l.57-.38c.45-.28.9-.56 1.38-.8-.72-.12-1.37-.29-1.97-.45l-.2-.06c-.56-.15-1.05-.28-1.51-.36-.51-.08-.95-.09-1.35.01-.37.1-.7.33-1.01.68-.33.35-.61.8-.9 1.26l-.06.09c-.26.42-.55.87-.85 1.21-.33.37-.77.72-1.36.72-.32 0-.66-.16-.96-.33-.32-.18-.7-.43-1.1-.72l-.65-.47c-.7-.51-1.53-1.11-2.5-1.74a27.32 27.32 0 00-10.7-4.22c-4.62-.74-9.36-.49-13.84 1.88-4.47 2.36-8.73 6.87-12.33 14.77-1.87 4.09-3.36 11.2-2.88 18.97.47 7.73 2.9 16.05 8.8 22.63 4.42 2.99 10.35 6.94 15.3 9.67 6.28 1.68 9.83.18 11.58-2.37 1.8-2.63 1.83-6.55.62-9.95a13.34 13.34 0 00-11.07-8.9A8.34 8.34 0 0038 74.04c-1.56 1.17-2.67 3.07-2.91 5.8a.47.47 0 010 .03c-.16 1.07-.45 5.42 4.7 8.47 4.1 2.43 6.96 1.83 8.29.35 1.33-1.5 1.38-4.18-.7-6.53a5.87 5.87 0 00-2.3-1.33.93.93 0 00-.5 0c-.1.04-.17.1-.23.2-.13.2-.19.59-.1 1.08.1.48.31.98.62 1.37.64.8.99 1.53.95 2.14-.02.33-.15.63-.4.84-.24.2-.55.3-.85.3-.6.04-1.33-.2-2.08-.63a9.23 9.23 0 01-2.35-2.02c-1.64-1.92-1.36-4.44.4-5.52 1.76-1.09 4.56-.48 7.56 2.87 2.35 2.63 2.5 5.91.73 7.9-1.79 2-5.25 2.4-9.55-.16-5.17-3.06-5.37-7.4-5.23-9.08zm10.58-.31c-1.6-.92-2.83-.82-3.57-.37-1.11.69-1.5 2.46-.16 4.03a8.24 8.24 0 002.09 1.8c.66.38 1.2.51 1.53.5.16-.01.23-.05.26-.07.01-.02.04-.04.04-.13.02-.23-.13-.71-.73-1.47a4.22 4.22 0 01-.82-1.8 2.55 2.55 0 01.23-1.8 1.44 1.44 0 011.13-.7zm47.87-35zm-54.81-16.2c5.21-1.79 10.71-1.17 15.5.78a.5.5 0 01-.38.93c-4.61-1.89-9.86-2.45-14.8-.76-4.93 1.7-9.62 5.66-13.08 12.97a.5.5 0 11-.9-.43c3.55-7.5 8.43-11.7 13.66-13.48zm48.26 12.35c.2-.2.51-.2.7 0l-.35.36.36-.36.01.02.02.02a2.69 2.69 0 01.28.35c.14.21.33.56.33.96a.5.5 0 11-1 0c0-.1-.06-.25-.17-.4a1.87 1.87 0 00-.17-.23l-.01-.01m0-.7a.5.5 0 000 .7zm1.27 8.67a.5.5 0 01-.15.7c-2.4 1.54-9.51 5.97-18.62 5.05a.5.5 0 01.1-1c8.74.89 15.61-3.37 17.98-4.9a.5.5 0 01.69.15zm-20.95 2.08a.5.5 0 01.65-.28c1.16.46 2.75.67 4.34.71 1.58.04 3.1-.08 4.08-.24a.5.5 0 01.16.99c-1.04.17-2.63.3-4.27.25a14.15 14.15 0 01-4.68-.78.5.5 0 01-.28-.65z" fill="#151841"/><path d="M79.88 56.76c-9.37 3.2-13.6 2.62-17.6 2.62-9.4 0-11.66 1.84-15.78 3.12-4 1.36-5.07.7-9.93 1.36-7.42 1-7.42 3.49-7.42 6.48l.97 3.66c-7.12-7-3.38-15.01 10.4-16 11.67-.84 21.98-9.5 28.98-8.5 10.59 1.51 17.96.04 23.24-3.7-1.98 4.48-5.94 8.6-12.86 10.96z" fill="#BF3A0D"/><path d="M44 83c3.5 3.5-.5 4.28-3.48.79-1.55-1.82-1.02-3.79-.02-4.29-.18 1.56.5 3.5 3.5 3.5zM45.5 72.5C53 74 57 81.5 56 86.5c-1.5-7.5-7.5-11.5-10.5-14z" fill="#FF8C66"/><path d="M79.87 56.76c-9.36 3.2-13.6 2.62-17.58 2.62-9.41 0-11.67 1.84-15.79 3.12-1.72.58-10 2.74-10 2.74L27 58.5s-5.55-13.66-4-14c8 3.5 11 14 16 13.5 6.68-.67 14.45.67 15.5-.5-5.5-5.76-1.84-11.33 1.5-8 8 8 9.5 9.5 23.87 7.26z" fill="#BF3A0D"/><path d="M53 30c-15.5-6.5-25.5 5.17-28.5 12-2 6.5 4.9-4.2 9.5-6.5C37 34 40 32 48 32s15.93 2.58 5-2zM92 44c0-3.5-4-10-8.5-12 2 5.5 4.48 6.65 4.5 7.5 1 2 1.78 3.22-1 6 0 0 2-.5 5-1.5z" fill="#FF8C66"/><path d="M47 95c9.2 0 9.83-7.83 9-11-1 10-12 13-23 3-6.54-5.95-1-10-2.5-11.5-.15-.49.5 0-.5-1.5-2-1.6.34-4.09-1-6-1.42-2.03 1-4.5 4-9-12.5-12-14.5-3.5-14.5 1.5-1 20 17 34.5 28.5 34.5z" fill="#BF3A0D"/><path d="M44 81.5c.5-3.5 7.5 1.5 4.5 8 3-1.5 5.83-4.5 2.5-9.5s-10.07-4.3-11.5 0c2.5-.62 4 0 4.5 1.5z" fill="#BF3A0D"/><path d="M42 72c-15.5 4.5-4 22.5 6 17.5-6.5 1-12.21-5.15-10.5-11 1.5-5.12 7-5.5 8-6 .84-1.07-1.56-1-3.5-.5z" fill="#BF3A0D"/><path d="M64.5 38c2-.5-.83-4.45.5-6-3 3.5-7-7-22-7-14.5 0-20 13.5-22 17.5s2.5 8 4.5 7-3-5.5-1-8 6 3.5 7.5 2.5-5-5.5-3.5-8S36 46.5 38 45s-7.5-11-5.5-13 4 8.5 6 7-3-9.5 0-10 2 12 5 11.5-.5-13 3.5-12 .5 13 3.5 12.5S52 29 54 30.5s1 10 3.5 11 1.35-9.15 3.5-7c1 1 1.5 4 3.5 3.5z" fill="#EFA75B"/><path fill-rule="evenodd" clip-rule="evenodd" d="M54.98 32.47l.35.04c3.87.42 4.92.53-2.33-2.51-8.39-3.52-15.16-1.72-20.09 1.76.8-.16 1.58 1.37 2.37 3.08.86-.44 1.76-.88 2.82-1.3-.61-2.21-1.08-4.3.4-4.54 1.16-.2 1.72 1.56 2.15 3.76 1.2-.3 2.6-.52 4.26-.65.1-2.27.5-4 2.09-3.61 1.27.32 1.78 1.74 1.99 3.51 1.36.04 2.69.13 3.9.25.19-1.4.47-2.24 1.11-1.76.46.34.76 1.06.98 1.97zm-23.8 5.1c.77-.7 1.53-1.3 2.24-1.75-.93-1.6-1.5-2.97-1.03-3.68a26.08 26.08 0 00-7.48 8.98c.7-.45 1.55-.2 2.43.33l.27-.29c.55-.58 1.13-1.2 1.73-1.8-.84-1.21-1.4-2.42-.84-3.36.5-.83 1.5.06 2.69 1.56z" fill="#F4C18B"/><path fill-rule="evenodd" clip-rule="evenodd" d="M24.64 45.28c-1.64-1.33-3.04-1.64-4.1-1.34-.5 3.45 3.2 6.44 4.96 5.56.93-.47.34-1.7-.36-3.14-.17-.35-.34-.71-.5-1.08z" fill="#BA6812"/><path fill-rule="evenodd" clip-rule="evenodd" d="M33.34 26.86c4.72-2.5 9.7-2.74 14.46-1.98 4.8.76 8.45 2.67 11.08 4.37 1 .65 1.85 1.27 2.56 1.78l.63.45c.4.3.74.52 1 .67.3.16.44.2.48.2.16 0 .35-.1.61-.38.25-.28.49-.66.77-1.11l.04-.06c.29-.46.61-.97 1-1.4.4-.44.89-.82 1.51-.98a4.27 4.27 0 011.76-.02c.52.08 1.06.23 1.6.38l.21.05c1.26.34 2.65.68 4.33.53 1.73-.16 2.96-.2 4.06.04 1.09.22 2 .7 3.12 1.49 2.07.55 3.55 2.05 4.57 3.07l.02.03c3.4 3.42 4.95 6.4 5.52 9.89h.04c.18.04.42.12.6.35.17.23.21.51.18.79s-.13.6-.3.98c-2.04 4.62-6.1 8.83-13.15 11.23a46.86 46.86 0 01-10.93 2.54c-2.05.19-3.74.16-5.28.13l-1.54-.02c-4.67 0-7.54.45-9.75 1.06-1.1.3-2.05.65-2.98 1l-.35.13c-.82.31-1.64.62-2.56.9-2.04.7-3.35.88-4.76.98L40.8 64c-1.1.06-2.37.11-4.17.36-3.69.5-5.37 1.34-6.17 2.31-.8.96-.81 2.14-.81 3.67 0 .66.2 1.53.54 2.49a18.44 18.44 0 003.09 5.34c.33.37.63.65.9.85a8.53 8.53 0 013.22-5.78 9.34 9.34 0 016.5-1.66c4.77.42 9.88 3.78 11.93 9.55 1.27 3.58 1.3 7.87-.73 10.85-2.09 3.05-6.18 4.53-12.73 2.76a.5.5 0 01-.1-.05c-5.03-2.76-11.05-6.78-15.5-9.78a.5.5 0 01-.08-.08c-6.12-6.8-8.61-15.37-9.1-23.28-.48-7.9 1.03-15.19 2.97-19.45 3.66-8.04 8.06-12.74 12.78-15.24zm.71 53.26a5.7 5.7 0 01-1.52-1.29 19.43 19.43 0 01-3.28-5.66c-.37-1.01-.6-2-.6-2.83v-.08c0-1.43 0-2.97 1.04-4.23 1.05-1.27 3.07-2.16 6.8-2.66 1.85-.25 3.17-.31 4.29-.37l1.04-.05c1.34-.09 2.57-.26 4.52-.92h.01c.89-.28 1.69-.58 2.5-.9l.36-.12c.94-.36 1.92-.72 3.07-1.03 2.3-.64 5.27-1.1 10-1.1.54 0 1.07 0 1.61.02 1.53.03 3.14.06 5.13-.13 2.68-.25 6.04-.9 10.7-2.48 6.8-2.33 10.64-6.34 12.56-10.7a2.51 2.51 0 00.22-.73 1.83 1.83 0 00-.28 0h-.05l-.12.01-.4.1-.78.2a41.98 41.98 0 01-4.51 1.06 27.33 27.33 0 01-13.03-.74l-.1-.03-.8-.25a6.65 6.65 0 00-1.57-.3c-.45-.02-.8.07-1.09.28-.29.2-.57.58-.8 1.26a.5.5 0 11-.95-.3 3.4 3.4 0 011.17-1.78c.52-.37 1.1-.48 1.7-.46.59.02 1.2.17 1.81.34l.83.26a123.96 123.96 0 011.04.31c4.35 1.22 8.45.98 11.61.43 1.58-.27 2.92-.62 3.94-.9l.47-.13a45.93 45.93 0 011.08-.29c-.55-3.2-1.99-5.98-5.23-9.24-.6-.6-1.3-1.3-2.12-1.87.5.76.86 1.54 1.2 2.29v.02c.62 1.37 1.2 2.64 2.59 3.81a.5.5 0 11-.64.77c-1.58-1.32-2.23-2.78-2.85-4.15v-.02c-.62-1.36-1.2-2.63-2.58-3.8a7.33 7.33 0 00-2.8-1.36c-.94-.2-2.04-.18-3.75-.03a9.33 9.33 0 00-3.57 1.55l-.56.36c-1.01.65-2.16 1.4-3.65 2.04a.5.5 0 01-.4-.92c1.41-.6 2.48-1.3 3.5-1.95l.57-.38c.45-.28.9-.56 1.38-.8-.72-.12-1.37-.29-1.97-.45l-.2-.06c-.56-.15-1.05-.28-1.51-.36-.51-.08-.95-.09-1.35.01-.37.1-.7.33-1.01.68-.33.35-.61.8-.9 1.26l-.06.09c-.26.42-.55.87-.85 1.21-.33.37-.77.72-1.36.72-.32 0-.66-.16-.96-.33-.32-.18-.7-.43-1.1-.72l-.65-.47c-.7-.51-1.53-1.11-2.5-1.74a27.32 27.32 0 00-10.7-4.22c-4.62-.74-9.36-.49-13.84 1.88-4.47 2.36-8.73 6.87-12.33 14.77-1.87 4.09-3.36 11.2-2.88 18.97.47 7.73 2.9 16.05 8.8 22.63 4.42 2.99 10.35 6.94 15.3 9.67 6.28 1.68 9.83.18 11.58-2.37 1.8-2.63 1.83-6.55.62-9.95a13.34 13.34 0 00-11.07-8.9A8.34 8.34 0 0038 74.04c-1.56 1.17-2.67 3.07-2.91 5.8a.47.47 0 010 .03c-.16 1.07-.45 5.42 4.7 8.47 4.1 2.43 6.96 1.83 8.29.35 1.33-1.5 1.38-4.18-.7-6.53a5.87 5.87 0 00-2.3-1.33.93.93 0 00-.5 0c-.1.04-.17.1-.23.2-.13.2-.19.59-.1 1.08.1.48.31.98.62 1.37.64.8.99 1.53.95 2.14-.02.33-.15.63-.4.84-.24.2-.55.3-.85.3-.6.04-1.33-.2-2.08-.63a9.23 9.23 0 01-2.35-2.02c-1.64-1.92-1.36-4.44.4-5.52 1.76-1.09 4.56-.48 7.56 2.87 2.35 2.63 2.5 5.91.73 7.9-1.79 2-5.25 2.4-9.55-.16-5.17-3.06-5.37-7.4-5.23-9.08zm10.58-.31c-1.6-.92-2.83-.82-3.57-.37-1.11.69-1.5 2.46-.16 4.03a8.24 8.24 0 002.09 1.8c.66.38 1.2.51 1.53.5.16-.01.23-.05.26-.07.01-.02.04-.04.04-.13.02-.23-.13-.71-.73-1.47a4.22 4.22 0 01-.82-1.8 2.55 2.55 0 01.23-1.8 1.44 1.44 0 011.13-.7zm47.87-35zm-54.81-16.2c5.21-1.79 10.71-1.17 15.5.78a.5.5 0 01-.38.93c-4.61-1.89-9.86-2.45-14.8-.76-4.93 1.7-9.62 5.66-13.08 12.97a.5.5 0 11-.9-.43c3.55-7.5 8.43-11.7 13.66-13.48zM69.5 36.5c.28 0 .5.22.5.5 0 1 0 2.36.92 3.72a.5.5 0 11-.84.56A7.2 7.2 0 0169 37.02V37c0-.28.22-.5.5-.5zm16.45 4.46c.2-.2.51-.2.7 0l-.35.36.36-.36.01.02.02.02a2.69 2.69 0 01.28.35c.14.21.33.56.33.96a.5.5 0 11-1 0c0-.1-.06-.25-.17-.4a1.87 1.87 0 00-.17-.23l-.01-.01m0-.7a.5.5 0 000 .7zm1.27 8.67a.5.5 0 01-.15.7c-2.4 1.54-9.51 5.97-18.62 5.05a.5.5 0 01.1-1c8.74.89 15.61-3.37 17.98-4.9a.5.5 0 01.69.15zm-20.95 2.08a.5.5 0 01.65-.28c1.16.46 2.75.67 4.34.71 1.58.04 3.1-.08 4.08-.24a.5.5 0 01.16.99c-1.04.17-2.63.3-4.27.25a14.15 14.15 0 01-4.68-.78.5.5 0 01-.28-.65zm-14.33 2.93a.5.5 0 01-.2.68A28.64 28.64 0 0139 58.5a.5.5 0 110-1c5.5 0 10.48-2.04 12.25-3.04a.5.5 0 01.69.19z" fill="#151841"/><path d="M82 69c0-1.5 0-6.5-.36-7.68C58.22 59.67 32.7 64.8 18 68.92v8.25c22.5-7.38 60.43-8.64 64-8.17z" fill="#151841"/><path fill-rule="evenodd" clip-rule="evenodd" d="M18.5 69.3v7.18c11.23-3.57 26.04-5.68 38.55-6.83 6.38-.6 12.17-.94 16.59-1.1 3.74-.15 6.53-.17 7.86-.1 0-.84 0-2.13-.04-3.4a47.5 47.5 0 00-.11-2.2c-.03-.44-.07-.8-.12-1.06-23.04-1.55-48.07 3.44-62.73 7.52zm-.63-.86c14.73-4.12 40.3-9.28 63.8-7.62l.35.02.1.33c.1.36.18.94.23 1.6.05.67.08 1.46.1 2.26.05 1.59.05 3.22.05 3.97v.57l-.56-.07c-.85-.11-3.84-.13-8.26.04-4.4.17-10.18.51-16.54 1.1-12.73 1.18-27.8 3.34-38.98 7l-.66.22v-.69V68.55l.37-.1z" fill="#151841"/><path d="M73.97 68.57c.49 1.9-6.03 1.9-6.53 0-.71-2.72 4-3.35 6.53 0z" fill="#BF3A0D"/><path fill-rule="evenodd" clip-rule="evenodd" d="M68.16 67.3c-.25.25-.37.61-.24 1.14.06.22.34.5.99.73a6.77 6.77 0 004.12.01c.23-.1.36-.2.42-.28a.21.21 0 00.05-.13 4.91 4.91 0 00-3.98-1.98c-.62.04-1.1.24-1.36.51zm1.3-1.5a5.93 5.93 0 014.91 2.46.5.5 0 01.09.18c.1.39.01.75-.2 1.05a2 2 0 01-.83.61 7.76 7.76 0 01-4.85.01c-.71-.25-1.43-.68-1.62-1.42a2.1 2.1 0 01.49-2.09c.5-.5 1.23-.76 2.01-.8z" fill="#151841"/><path d="M70.97 60.91c-.01-.95.49-1.91.49-1.91-12.07.96-10.08 1.91-7.54 1.91h7.05z" fill="#BF3A0D"/><path fill-rule="evenodd" clip-rule="evenodd" d="M71.9 59.23a.5.5 0 00-.48-.73c-3.02.24-5.18.48-6.66.7-.75.12-1.33.23-1.78.34-.43.1-.77.21-1 .33-.1.06-.24.14-.34.26a.61.61 0 00-.1.61c.08.2.23.3.32.36.1.05.22.1.33.13a6.8 6.8 0 001.73.18h7.05a.5.5 0 00.5-.5 3.48 3.48 0 01.37-1.54l.04-.1.02-.03zm-1.2.33a89.5 89.5 0 00-5.8.64c-.47.07-.88.14-1.22.21h6.82c.04-.31.12-.6.2-.85zm-8.34.67z" fill="#151841"/><path d="M48.83 70.63c1.32 1.4-5.58 2.02-6.6.44-1.42-2.2 4.1-3.08 6.6-.44z" fill="#BF3A0D"/><path fill-rule="evenodd" clip-rule="evenodd" d="M42.5 70.35c0 .1.02.24.15.45.06.09.18.2.42.3.23.12.54.2.9.27.72.13 1.59.16 2.4.1a5.95 5.95 0 001.91-.41l.18-.1a5.45 5.45 0 00-4.35-1.43c-.7.08-1.2.3-1.45.53-.11.1-.15.2-.16.3zm1.5-1.81c1.63-.18 3.8.28 5.2 1.75.12.12.22.28.27.46.05.2.03.39-.04.56a1.4 1.4 0 01-.71.65c-.56.27-1.4.44-2.27.5-.88.07-1.84.05-2.66-.1-.41-.08-.8-.19-1.14-.34a1.95 1.95 0 01-.84-.68 1.7 1.7 0 01-.3-1.07c.03-.37.2-.68.45-.93a3.48 3.48 0 012.04-.8z" fill="#151841"/><path d="M56.09 63c0-1.81-16.92-12.54-14.93-18.05 1.3-3.62 14.94-1.23 18.38-.5 2.39.5 4.02 4.5 1.52 6.51-2.49 2-8.45-.15-9.94-2 1 1.23 8.35 8.29 9.38 9.04 1.1.8 7-.5 7.5 2.99-2.99.16-3.07-.2-5 .51-1.38.5-2.02 4.99 1.5 7.5s-3.47 2.52-5.46 1.02C57.05 68.52 56.1 66 56.1 63z" fill="#F05B29"/><path fill-rule="evenodd" clip-rule="evenodd" d="M49.58 42.57c4.03.24 8.33 1.02 10.06 1.38 1.43.3 2.54 1.61 2.97 3.05.44 1.45.21 3.2-1.23 4.35-.73.6-1.69.85-2.68.9-1 .06-2.08-.1-3.11-.36-.46-.12-.9-.26-1.34-.43a247.6 247.6 0 004.83 4.62c.86.8 1.48 1.35 1.71 1.52.05.03.16.08.41.12.24.04.54.07.9.1l.57.03c.58.02 1.23.06 1.87.14.86.1 1.76.3 2.49.74a2.93 2.93 0 011.47 2.19.5.5 0 01-.47.57c-1 .05-1.72.05-2.25.05h-.66c-.57.02-1.02.1-1.95.43-.14.05-.36.26-.54.74a4.25 4.25 0 00-.22 1.75c.1 1.37.76 2.97 2.38 4.13.46.33.8.66 1 .98.2.35.27.74.05 1.11-.18.32-.52.5-.83.61-.33.12-.72.19-1.13.22-.83.07-1.83 0-2.75-.17-.9-.18-1.8-.48-2.39-.93-2.15-1.62-3.14-4.3-3.15-7.4l-.1-.17c-.1-.15-.26-.34-.48-.57a29.86 29.86 0 00-1.86-1.7l-1.7-1.45a162.1 162.1 0 01-3.9-3.39c-2-1.8-3.96-3.75-5.3-5.6-.67-.93-1.2-1.85-1.5-2.74-.29-.9-.36-1.79-.06-2.61.22-.6.68-1.04 1.25-1.36a6.82 6.82 0 012.07-.67c1.57-.28 3.55-.3 5.57-.18zm1.93 6.07c.3.39.9.83 1.68 1.25.77.41 1.7.78 2.65 1.03.96.25 1.93.38 2.8.34.87-.05 1.6-.27 2.11-.69 1.05-.84 1.25-2.11.9-3.29-.35-1.2-1.25-2.14-2.21-2.35a75.31 75.31 0 00-9.92-1.36c-1.99-.12-3.87-.1-5.33.16-.73.13-1.32.32-1.76.56-.44.25-.69.52-.8.83-.2.55-.17 1.2.08 1.95.25.76.71 1.6 1.35 2.48a37.73 37.73 0 005.15 5.44 159.9 159.9 0 003.87 3.35c.61.52 1.2 1.01 1.72 1.47.78.67 1.45 1.28 1.93 1.77.23.25.44.48.58.7.13.18.28.44.28.72 0 2.9.93 5.24 2.75 6.62.41.3 1.13.57 1.99.73a9.5 9.5 0 002.47.17c.36-.03.66-.1.88-.17.2-.07.28-.14.3-.16a.35.35 0 00-.05-.1 2.6 2.6 0 00-.72-.68 6.54 6.54 0 01-2.8-4.88c-.05-.81.05-1.57.28-2.18.22-.58.6-1.12 1.14-1.32a6.5 6.5 0 012.26-.49h.77c.4 0 .86 0 1.5-.02-.17-.4-.47-.7-.84-.93a5.55 5.55 0 00-2.1-.6 23.83 23.83 0 00-2.39-.18c-.36-.02-.7-.05-1-.1a2.02 2.02 0 01-.82-.3c-.3-.21-.97-.82-1.81-1.6-.86-.79-1.9-1.78-2.95-2.79a96.35 96.35 0 01-4.7-4.73l-1.48-1.49a.5.5 0 01.71-.7l1.5 1.5c0 .02.02.03.03.04z" fill="#151841"/><path d="M56.09 63c0-1.81-16.92-12.54-14.93-18.05 1.3-3.62 14.94-1.23 18.38-.5 2.39.5 4.02 4.5 1.52 6.51-2.49 2-8.45-.15-9.94-2 1 1.23 8.35 8.29 9.38 9.04 1.1.8 7-.5 7.5 2.99-2.99.16-3.07-.2-5 .51-1.38.5-2.02 4.99 1.5 7.5s-3.47 2.52-5.46 1.02C57.05 68.52 56.1 66 56.1 63z" fill="#F05B29"/><path fill-rule="evenodd" clip-rule="evenodd" d="M49.58 42.57c4.03.24 8.33 1.02 10.06 1.38 1.43.3 2.54 1.61 2.97 3.05.44 1.45.21 3.2-1.23 4.35-.73.6-1.69.85-2.68.9-1 .06-2.08-.1-3.11-.36-.46-.12-.9-.26-1.34-.43a247.6 247.6 0 004.83 4.62c.86.8 1.48 1.35 1.71 1.52.05.03.16.08.41.12.24.04.54.07.9.1l.57.03c.58.02 1.23.06 1.87.14.86.1 1.76.3 2.49.74a2.93 2.93 0 011.47 2.19.5.5 0 01-.47.57c-1 .05-1.72.05-2.25.05h-.66c-.57.02-1.02.1-1.95.43-.14.05-.36.26-.54.74a4.25 4.25 0 00-.22 1.75c.1 1.37.76 2.97 2.38 4.13.46.33.8.66 1 .98.2.35.27.74.05 1.11-.18.32-.52.5-.83.61-.33.12-.72.19-1.13.22-.83.07-1.83 0-2.75-.17-.9-.18-1.8-.48-2.39-.93-2.15-1.62-3.14-4.3-3.15-7.4l-.1-.17c-.1-.15-.26-.34-.48-.57a29.86 29.86 0 00-1.86-1.7l-1.7-1.45a162.1 162.1 0 01-3.9-3.39c-2-1.8-3.96-3.75-5.3-5.6-.67-.93-1.2-1.85-1.5-2.74-.29-.9-.36-1.79-.06-2.61.22-.6.68-1.04 1.25-1.36a6.82 6.82 0 012.07-.67c1.57-.28 3.55-.3 5.57-.18zm1.93 6.07c.3.39.9.83 1.68 1.25.77.41 1.7.78 2.65 1.03.96.25 1.93.38 2.8.34.87-.05 1.6-.27 2.11-.69 1.05-.84 1.25-2.11.9-3.29-.35-1.2-1.25-2.14-2.21-2.35a75.31 75.31 0 00-9.92-1.36c-1.99-.12-3.87-.1-5.33.16-.73.13-1.32.32-1.76.56-.44.25-.69.52-.8.83-.2.55-.17 1.2.08 1.95.25.76.71 1.6 1.35 2.48a37.73 37.73 0 005.15 5.44 159.9 159.9 0 003.87 3.35c.61.52 1.2 1.01 1.72 1.47.78.67 1.45 1.28 1.93 1.77.23.25.44.48.58.7.13.18.28.44.28.72 0 2.9.93 5.24 2.75 6.62.41.3 1.13.57 1.99.73a9.5 9.5 0 002.47.17c.36-.03.66-.1.88-.17.2-.07.28-.14.3-.16a.35.35 0 00-.05-.1 2.6 2.6 0 00-.72-.68 6.54 6.54 0 01-2.8-4.88c-.05-.81.05-1.57.28-2.18.22-.58.6-1.12 1.14-1.32a6.5 6.5 0 012.26-.49h.77c.4 0 .86 0 1.5-.02-.17-.4-.47-.7-.84-.93a5.55 5.55 0 00-2.1-.6 23.83 23.83 0 00-2.39-.18c-.36-.02-.7-.05-1-.1a2.02 2.02 0 01-.82-.3c-.3-.21-.97-.82-1.81-1.6-.86-.79-1.9-1.78-2.95-2.79a96.35 96.35 0 01-4.7-4.73l-1.48-1.49a.5.5 0 01.71-.7l1.5 1.5c0 .02.02.03.03.04z" fill="#151841"/><path d="M62 66c-1.5-5.5 3.5-5.5 6-5-3-5-11 0-6 5z" fill="#FF8C66"/><path d="M59.04 70.02C57.05 68.52 56.1 66 56.1 63c0-1.18-7.2-6.15-11.65-11 7.68 5.88 13.06 8 14.56 9s-1.5 7 5.5 8c3.52 2.51-3.47 2.52-5.46 1.02zM61.06 50.96c-2.49 2-8.45-.15-9.94-2l-1.5-1.5S54 49.5 57 49.5s4.06-.54 5.21-2.05c.28 1.24 0 2.59-1.15 3.51z" fill="#BF3A0D"/><path d="M60 44.5s2.5 1.5-.5 2-14.5-4-18.5-1c0 0-.5-2 4-2.5s15 1.5 15 1.5z" fill="#FF8C66"/><path fill-rule="evenodd" clip-rule="evenodd" d="M49.58 42.57c4.03.24 8.33 1.02 10.06 1.38 1.43.3 2.54 1.61 2.97 3.05.44 1.45.21 3.2-1.23 4.35-.73.6-1.69.85-2.68.9-1 .06-2.08-.1-3.11-.36-.46-.12-.9-.26-1.34-.43a247.6 247.6 0 004.83 4.62c.86.8 1.48 1.35 1.71 1.52.05.03.16.08.41.12.24.04.54.07.9.1l.57.03c.58.02 1.23.06 1.87.14.86.1 1.76.3 2.49.74a2.93 2.93 0 011.47 2.19.5.5 0 01-.47.57c-1 .05-1.72.05-2.25.05h-.66c-.57.02-1.02.1-1.95.43-.14.05-.36.26-.54.74a4.25 4.25 0 00-.22 1.75c.1 1.37.76 2.97 2.38 4.13.46.33.8.66 1 .98.2.35.27.74.05 1.11-.18.32-.52.5-.83.61-.33.12-.72.19-1.13.22-.83.07-1.83 0-2.75-.17-.9-.18-1.8-.48-2.39-.93-2.15-1.62-3.14-4.3-3.15-7.4l-.1-.17c-.1-.15-.26-.34-.48-.57a29.86 29.86 0 00-1.86-1.7l-1.7-1.45a162.1 162.1 0 01-3.9-3.39c-2-1.8-3.96-3.75-5.3-5.6-.67-.93-1.2-1.85-1.5-2.74-.29-.9-.36-1.79-.06-2.61.22-.6.68-1.04 1.25-1.36a6.82 6.82 0 012.07-.67c1.57-.28 3.55-.3 5.57-.18zm1.93 6.07c.3.39.9.83 1.68 1.25.77.41 1.7.78 2.65 1.03.96.25 1.93.38 2.8.34.87-.05 1.6-.27 2.11-.69 1.05-.84 1.25-2.11.9-3.29-.35-1.2-1.25-2.14-2.21-2.35a75.31 75.31 0 00-9.92-1.36c-1.99-.12-3.87-.1-5.33.16-.73.13-1.32.32-1.76.56-.44.25-.69.52-.8.83-.2.55-.17 1.2.08 1.95.25.76.71 1.6 1.35 2.48a37.73 37.73 0 005.15 5.44 159.9 159.9 0 003.87 3.35c.61.52 1.2 1.01 1.72 1.47.78.67 1.45 1.28 1.93 1.77.23.25.44.48.58.7.13.18.28.44.28.72 0 2.9.93 5.24 2.75 6.62.41.3 1.13.57 1.99.73a9.5 9.5 0 002.47.17c.36-.03.66-.1.88-.17.2-.07.28-.14.3-.16a.35.35 0 00-.05-.1 2.6 2.6 0 00-.72-.68 6.54 6.54 0 01-2.8-4.88c-.05-.81.05-1.57.28-2.18.22-.58.6-1.12 1.14-1.32a6.5 6.5 0 012.26-.49h.77c.4 0 .86 0 1.5-.02-.17-.4-.47-.7-.84-.93a5.55 5.55 0 00-2.1-.6 23.83 23.83 0 00-2.39-.18c-.36-.02-.7-.05-1-.1a2.02 2.02 0 01-.82-.3c-.3-.21-.97-.82-1.81-1.6-.86-.79-1.9-1.78-2.95-2.79a96.35 96.35 0 01-4.7-4.73l-1.48-1.49a.5.5 0 01.71-.7l1.5 1.5c0 .02.02.03.03.04z" fill="#151841"/><path d="M33.08 73.02c-2.58-1.52-2.84-4.5-2.97-7.5C30 63 27.4 61.55 24 58c1.1 1.14-1.33 2.68-2.82 1.52-1.6-1.26-2.7-3.1-3.52-5.08a5.66 5.66 0 01-.16-3.38c-.76-1.3.5-2.13.16-3.2C16.5 44.2 18 43 18 43c1.5-1 3.51-.13 4.67 1.5C26 49.23 32.37 60.13 36.08 61c1.42.5 5.42 0 5.92 2.5-1.98.5-3.58.6-5.5 1-1.43.3-.95 5.97 2.52 7.52 3.47 1.56-3.25 2.6-5.94 1z" fill="#F05B29"/><path fill-rule="evenodd" clip-rule="evenodd" d="M20.63 42.3a5.24 5.24 0 012.45 1.92c.7 1 1.54 2.27 2.46 3.66.17.26.35.52.52.8a156.9 156.9 0 003.58 5.22 42.81 42.81 0 003.6 4.47c1.17 1.22 2.18 1.96 2.96 2.14l.05.02c.29.1.74.16 1.34.22l.17.02c.53.06 1.14.12 1.72.24 1.27.25 2.7.81 3.01 2.4a.5.5 0 01-.37.57 30.06 30.06 0 01-3.27.62c-.74.12-1.47.23-2.25.39 0 0-.05.01-.12.12-.07.11-.14.3-.18.55-.1.52-.07 1.24.11 2.02.36 1.57 1.28 3.2 2.81 3.89.46.2.82.42 1.04.69.11.14.2.31.23.51.02.21-.04.4-.14.56-.17.28-.5.46-.8.58-.3.12-.7.22-1.11.29-.84.13-1.87.16-2.86.05-1-.1-2-.35-2.76-.8a5.83 5.83 0 01-2.62-3.48 17.92 17.92 0 01-.6-4.43c-.04-1.07-.6-1.95-1.67-3.05a44.8 44.8 0 00-1.9-1.8c-.45-.43-.94-.88-1.44-1.39a2.1 2.1 0 01-.78.75c-.78.46-2 .6-2.94-.14-1.7-1.33-2.83-3.27-3.67-5.28a5.96 5.96 0 01-.23-3.48 2.35 2.35 0 01-.02-1.94l.08-.23a4 4 0 00.15-.46.92.92 0 000-.5V48c-.6-1.9-.52-3.23-.26-4.1a3.24 3.24 0 01.66-1.2 1.45 1.45 0 01.1-.09L18 43l-.31-.39.03-.03a3.2 3.2 0 012.91-.29zm-2.32 1.1h-.01l-.1.14c-.1.12-.23.34-.32.66-.2.64-.3 1.75.25 3.51.33 1.03.12 2.1-.07 3.07l-.03.18c0 .02.02.03.03.05A32.81 32.81 0 0021 54.29l1.29 1.28c.7.7 1.42 1.4 2.07 2.08v.01c.84.87 1.63 1.62 2.35 2.3l.3.27c.6.56 1.16 1.07 1.64 1.57 1.1 1.14 1.9 2.25 1.96 3.7a17 17 0 00.54 4.18 4.84 4.84 0 002.18 2.91c.59.35 1.43.57 2.35.67.91.1 1.85.07 2.6-.05.37-.06.68-.14.9-.23l.26-.13c-.1-.09-.28-.22-.63-.37-1.93-.87-2.98-2.85-3.37-4.58a6.4 6.4 0 01-.13-2.4c.06-.34.16-.66.32-.92.17-.27.42-.5.77-.57a45.48 45.48 0 012.75-.46c.72-.12 1.43-.24 2.2-.4-.34-.63-1.07-.96-2.06-1.16-.54-.1-1.1-.17-1.64-.22l-.17-.02a7.78 7.78 0 01-1.54-.27c-1.08-.26-2.25-1.2-3.42-2.42a43.76 43.76 0 01-3.7-4.58 157.7 157.7 0 01-3.59-5.26l-.53-.8c-.92-1.39-1.74-2.64-2.44-3.63a4.24 4.24 0 00-1.96-1.55 2.2 2.2 0 00-2 .16zm5.33 14.95c-.65-.68-1.34-1.36-2.04-2.05L20.3 55a40.84 40.84 0 01-2.47-2.67c-.04.64.02 1.27.29 1.92.81 1.94 1.87 3.69 3.37 4.87.54.43 1.3.38 1.82.07.26-.15.4-.33.45-.47.03-.1.03-.21-.12-.37z" fill="#151841"/><path d="M17.5 43.5c5.53-5.07 11.06 14.93 18.55 17.7.66.16 1.3.27 1.95.3a4.77 4.77 0 01-1.95-.3C27.06 58.9 17.5 44.9 17.5 43.5z" fill="#FF8C66"/><path d="M35.6 68.07C35 63.5 37.5 64.5 42 63.5c-3.5-4.5-11.4-.43-6.4 4.57z" fill="#FF8C66"/><path d="M32.6 73.02C30.6 71.52 30 68 30 65c0-.75-2.62-3.41-5.68-6.5-.32 1 0 2-2.82 1-.96-.98-2.64-2.56-3.5-3.5-.5-1.5-1.17-7.82 1-6 2.5 5 12.5 11.5 13.6 14 1.1 2.5 1.9 8 6.4 8 3.52 2.51-4.41 2.52-6.4 1.02z" fill="#BF3A0D"/><path fill-rule="evenodd" clip-rule="evenodd" d="M20.63 42.3a5.24 5.24 0 012.45 1.92c.7 1 1.54 2.27 2.46 3.66.17.26.35.52.52.8a156.9 156.9 0 003.58 5.22 42.81 42.81 0 003.6 4.47c1.17 1.22 2.18 1.96 2.96 2.14l.05.02c.29.1.74.16 1.34.22l.17.02c.53.06 1.14.12 1.72.24 1.27.25 2.7.81 3.01 2.4a.5.5 0 01-.37.57 30.06 30.06 0 01-3.27.62c-.74.12-1.47.23-2.25.39 0 0-.05.01-.12.12-.07.11-.14.3-.18.55-.1.52-.07 1.24.11 2.02.36 1.57 1.28 3.2 2.81 3.89.46.2.82.42 1.04.69.11.14.2.31.23.51.02.21-.04.4-.14.56-.17.28-.5.46-.8.58-.3.12-.7.22-1.11.29-.84.13-1.87.16-2.86.05-1-.1-2-.35-2.76-.8a5.83 5.83 0 01-2.62-3.48 17.92 17.92 0 01-.6-4.43c-.04-1.07-.6-1.95-1.67-3.05-.46-.47-1-.97-1.6-1.53a486.89 486.89 0 01-1.74-1.66 2.1 2.1 0 01-.78.75c-.78.46-2 .6-2.94-.14-1.7-1.33-2.83-3.27-3.67-5.28a5.96 5.96 0 01-.23-3.48c-.13-.27-.2-.53-.22-.8-.03-.4.06-.74.16-1.04l.12-.34.14-.42a.95.95 0 00.01-.54c-.6-1.9-.52-3.23-.26-4.1a3.24 3.24 0 01.66-1.2 1.45 1.45 0 01.1-.09L18 43l-.31-.39.03-.03a3.2 3.2 0 012.91-.29zm-2.32 1.1h-.01l-.1.14c-.1.12-.23.34-.32.66-.2.64-.3 1.75.25 3.51a6.18 6.18 0 01-.1 3.25c0 .02.02.03.03.05A32.81 32.81 0 0021 54.29l1.29 1.28c.7.7 1.42 1.4 2.07 2.08v.01c.84.87 1.63 1.62 2.35 2.3l.3.27c.6.56 1.16 1.07 1.64 1.57 1.1 1.14 1.9 2.25 1.96 3.7a17 17 0 00.54 4.18 4.84 4.84 0 002.18 2.91c.59.35 1.43.57 2.35.67.91.1 1.85.07 2.6-.05.37-.06.68-.14.9-.23l.26-.13c-.1-.09-.28-.22-.63-.37-1.93-.87-2.98-2.85-3.37-4.58a6.4 6.4 0 01-.13-2.4c.06-.34.16-.66.32-.92.17-.27.42-.5.77-.57a45.48 45.48 0 012.75-.46c.72-.12 1.43-.24 2.2-.4-.34-.63-1.07-.96-2.06-1.16-.54-.1-1.1-.17-1.64-.22l-.17-.02a7.78 7.78 0 01-1.54-.27c-1.08-.26-2.25-1.2-3.42-2.42a43.76 43.76 0 01-3.7-4.58 157.7 157.7 0 01-3.59-5.26l-.53-.8c-.92-1.39-1.74-2.64-2.44-3.63a4.24 4.24 0 00-1.96-1.55 2.2 2.2 0 00-2 .16zm5.33 14.95c-.65-.68-1.34-1.36-2.04-2.05L20.3 55a40.8 40.8 0 01-2.47-2.67c-.04.64.02 1.27.29 1.92.81 1.94 1.87 3.69 3.37 4.87.54.43 1.3.38 1.82.07.26-.15.4-.33.45-.47.03-.1.03-.21-.12-.37z" fill="#151841"/><path d="M84 37a6 6 0 11-12 0 6 6 0 0112 0z" fill="#EFA75B"/><path fill-rule="evenodd" clip-rule="evenodd" d="M78 42a5 5 0 100-10 5 5 0 000 10zm0 1a6 6 0 100-12 6 6 0 000 12z" fill="#151841"/><path d="M80.37 41.94a5.01 5.01 0 01-7.54-4.35c.02-3.78.46.26 3.77 2.17 3.3 1.91 7.03.27 3.77 2.18z" fill="#BA6812"/><path d="M77.5 31.39c1.38-.2 3 .36 4.27 1.61a5.16 5.16 0 011.61 4.27c-.44 2.98-.36-.36-2.94-2.94s-5.92-2.5-2.94-2.94z" fill="#F4C18B"/><path fill-rule="evenodd" clip-rule="evenodd" d="M78 42a5 5 0 100-10 5 5 0 000 10zm0 1a6 6 0 100-12 6 6 0 000 12z" fill="#151841"/><path d="M79 38a2 2 0 110-4 2 2 0 010 4z" fill="#fff"/><path fill-rule="evenodd" clip-rule="evenodd" d="M78 36a1 1 0 102 0 1 1 0 00-2 0zm-1 0a2 2 0 104 0 2 2 0 00-4 0z" fill="#151841"/><path d="M16 80.14L50 100l34-19.86V59h-3.04v19.44L50 96.53 19.04 78.44V22.19L50 19l30.96 3.19L84 19.5 50 16l-34 3.5v60.64z" fill="#151841"/></svg>