<svg width="36" height="36" viewBox="0 0 36 36" fill="none" xmlns="http://www.w3.org/2000/svg">
<path d="M25.853 24.9119C25.4688 24.9119 25.1572 25.2254 25.1572 25.6097C25.1572 25.9939 25.4688 26.3054 25.853 26.3054C26.2372 26.3054 26.5487 25.9938 26.5487 25.6097V25.6057C26.5487 25.2215 26.2372 24.9119 25.853 24.9119Z" fill="#6ED3C1"/>
<path d="M28.959 24.9119C28.5748 24.9119 28.2633 25.2254 28.2633 25.6097C28.2633 25.9939 28.5748 26.3054 28.959 26.3054C29.3432 26.3054 29.6548 25.9938 29.6548 25.6097V25.6057C29.6548 25.2215 29.3432 24.9119 28.959 24.9119Z" fill="#6ED3C1"/>
<path d="M32.0679 24.9119C31.6837 24.9119 31.3722 25.2254 31.3722 25.6097C31.3722 25.9939 31.6837 26.3054 32.0679 26.3054C32.4521 26.3054 32.7636 25.9938 32.7636 25.6097V25.6057C32.7636 25.2215 32.4522 24.9119 32.0679 24.9119Z" fill="#6ED3C1"/>
<path d="M17.5317 13.6968C17.5317 14.3939 18.0989 14.9611 18.7959 14.9611H20.7301C21.1532 14.9611 21.5274 14.7514 21.757 14.4314C22.3171 14.6571 22.9714 14.7731 23.5217 14.7731H25.955C27.7293 14.7731 29.1728 13.3304 29.1728 11.5571V9.78943C29.1728 8.51373 28.1342 7.47593 26.8574 7.47593H26.2129V5.99153C26.2129 5.03423 25.4342 4.25543 24.477 4.25543C23.3553 4.25543 22.9408 5.33713 22.7843 5.74543L22.1831 7.32213C22.0952 7.55333 22.0136 7.68573 21.9142 7.76233C21.7353 7.28043 21.2728 6.93553 20.7301 6.93553H18.7959C18.0989 6.93553 17.5317 7.50353 17.5317 8.20173V13.6968ZM21.9943 9.20183C22.5105 9.10203 23.1029 8.78983 23.4739 7.81353L24.0745 6.23873C24.3051 5.63673 24.4255 5.63673 24.4769 5.63673C24.6725 5.63673 24.8317 5.79593 24.8317 5.99163V8.16653C24.8317 8.54793 25.1409 8.85723 25.5223 8.85723H26.8574C27.3725 8.85723 27.7916 9.27543 27.7916 9.78943V11.5572C27.7916 12.5688 26.9676 13.3919 25.9549 13.3919H23.5216C22.9048 13.3919 22.3009 13.1991 21.9943 13.0164V9.20183ZM18.913 8.31683H20.613V13.5799H18.913V8.31683Z" fill="#6ED3C1"/>
<path d="M34.0119 21.6497H25.1662C25.1224 21.0863 25.0414 20.5264 24.922 19.9747C25.026 19.9589 25.1298 19.9413 25.2335 19.9221C30.4768 18.9433 33.9484 13.8811 32.9721 8.63748C32.499 6.09648 31.065 3.89217 28.934 2.43037C26.803 0.968375 24.2302 0.424276 21.6896 0.898476C20.9083 1.04388 20.1516 1.28218 19.4405 1.60698C19.0935 1.76528 18.9406 2.17498 19.0991 2.52198C19.2574 2.86898 19.6673 3.02178 20.0141 2.86338C20.623 2.58548 21.2718 2.38128 21.9428 2.25628C24.1208 1.85008 26.3259 2.31617 28.1527 3.56938C29.9794 4.82247 31.2087 6.71218 31.6143 8.89038C32.4512 13.3856 29.4752 17.7254 24.9808 18.5643C23.4781 18.8434 21.9322 18.704 20.5098 18.1615C20.328 18.0922 20.1254 18.1026 19.9518 18.1906C18.7166 18.816 17.3691 19.0238 15.9359 18.8122C16.5177 17.605 16.6873 16.5709 16.5728 15.185C16.5635 15.073 16.527 14.9649 16.4665 14.87C15.8929 13.9724 15.5027 12.9827 15.3067 11.9282C14.9792 10.1718 15.2178 8.39608 15.9967 6.79298C16.1634 6.44988 16.0204 6.03667 15.6773 5.86998C15.3344 5.70318 14.921 5.84628 14.7544 6.18938C14.1395 7.45478 13.8142 8.81227 13.7855 10.1923C13.432 10.1623 13.0768 10.1467 12.7232 10.1467C9.38943 10.1467 6.25493 11.4449 3.89703 13.802C1.53963 16.1592 0.241333 19.2937 0.241333 22.6281C0.241333 25.9624 1.53963 29.0969 3.89673 31.4541C6.25393 33.8127 9.38843 35.1117 12.723 35.1117C16.0592 35.1117 19.1943 33.8127 21.5506 31.4541C22.1736 30.8311 22.7268 30.1478 23.2024 29.4153C23.4069 29.5116 23.6349 29.5656 23.8754 29.5656H34.0119C34.8882 29.5656 35.6011 28.8528 35.6011 27.9764V23.2389C35.6011 22.3626 34.8882 21.6497 34.0119 21.6497ZM16.3374 20.2472C16.5723 20.7625 16.6954 21.3265 16.6954 21.8981C16.6954 24.0885 14.9134 25.8705 12.723 25.8705C10.5326 25.8705 8.75063 24.0885 8.75063 21.8981C8.75063 19.7076 10.5327 17.9256 12.723 17.9256C13.3867 17.9256 14.0259 18.0874 14.5996 18.3962C14.5083 18.5739 14.4072 18.7574 14.2929 18.9515C14.1829 19.1382 14.1669 19.3658 14.2498 19.566C14.3326 19.7663 14.5046 19.9161 14.7145 19.9705C15.2645 20.1132 15.8056 20.2046 16.3374 20.2472ZM4.87363 30.4775C0.545332 26.1493 0.545333 19.1068 4.87353 14.7787C6.97043 12.6823 9.75813 11.5278 12.7231 11.5278C13.1012 11.5278 13.4812 11.5477 13.8583 11.5861C13.8829 11.7845 13.9117 11.9828 13.9487 12.181C14.1664 13.3522 14.5899 14.4555 15.2084 15.4634C15.2483 16.0752 15.218 16.5907 15.0977 17.0988C14.3646 16.7347 13.5582 16.5444 12.723 16.5444C9.77103 16.5444 7.36943 18.946 7.36943 21.8981C7.36943 23.2188 7.85113 24.4286 8.64693 25.3632C6.74513 26.5324 5.43053 28.458 5.03293 30.6331C4.97953 30.5817 4.92613 30.5301 4.87363 30.4775ZM12.723 33.7304C10.3873 33.7304 8.16213 33.0133 6.29793 31.6838C6.41873 29.4327 7.72723 27.3949 9.72923 26.3343C10.5843 26.9132 11.6149 27.2517 12.723 27.2517C13.8315 27.2517 14.8622 26.913 15.7175 26.3338C17.7201 27.3944 19.0289 29.4325 19.1497 31.684C17.2857 33.0133 15.06 33.7304 12.723 33.7304ZM20.5737 30.4778C20.5212 30.5303 20.468 30.5818 20.4147 30.6331C20.0171 28.4575 18.7021 26.5317 16.7998 25.3626C17.5952 24.428 18.0767 23.2185 18.0767 21.8982C18.0767 21.3312 17.9862 20.7696 17.8122 20.2353C18.673 20.149 19.5045 19.9226 20.3015 19.5553C21.3418 19.9151 22.4334 20.0919 23.5296 20.084C23.6505 20.6001 23.7357 21.1243 23.7817 21.6527C22.95 21.7014 22.2881 22.3942 22.2881 23.2389V23.7255L20.3166 25.032C20.1236 25.16 20.0075 25.376 20.0075 25.6077C20.0075 25.8393 20.1236 26.0554 20.3166 26.1834L22.2881 27.4898V27.9765C22.2881 28.0633 22.2954 28.1483 22.3088 28.2313C21.8309 29.0472 21.2491 29.8024 20.5737 30.4778ZM34.2198 27.9764C34.2198 28.0892 34.1246 28.1844 34.0119 28.1844H23.8754C23.7638 28.1844 23.6694 28.0892 23.6694 27.9764V27.119C23.6694 26.8873 23.5533 26.6712 23.3603 26.5433L21.9484 25.6076L23.3603 24.672C23.5533 24.544 23.6694 24.3279 23.6694 24.0963V23.2389C23.6694 23.1261 23.7638 23.0308 23.8754 23.0308H34.0119C34.1246 23.0308 34.2198 23.1261 34.2198 23.2389V27.9764Z" fill="#6ED3C1"/>
<path d="M17.1867 4.66492C17.364 4.66492 17.5415 4.59732 17.6766 4.46212C17.9463 4.19252 17.9463 3.75523 17.6766 3.48553C17.4068 3.21593 16.9697 3.21593 16.6999 3.48553L16.698 3.48742C16.4283 3.75712 16.4293 4.19343 16.699 4.46313C16.8335 4.59783 17.0101 4.66492 17.1867 4.66492Z" fill="#6ED3C1"/>
</svg>
