<svg width="30" height="36" viewBox="0 0 30 36" fill="none" xmlns="http://www.w3.org/2000/svg">
<path d="M25.134 34.4668H24.501H5.50101H4.867V35.7335H25.134V34.4668Z" fill="#6BD0C8"/>
<path d="M14.998 0.265625C13.151 0.267805 11.38 1.00251 10.074 2.30851C8.76801 3.6146 8.03301 5.3853 8.03101 7.2323V9.06901C8.13001 9.0231 8.23201 8.98521 8.33701 8.95561C8.44901 8.35791 8.754 7.81311 9.203 7.4039C9.653 6.99461 10.224 6.7431 10.83 6.6876C12.086 6.5263 13.281 6.0467 14.3 5.2943C14.505 5.153 14.749 5.0774 14.998 5.0774C15.248 5.0774 15.491 5.153 15.696 5.2943C16.726 6.0409 17.924 6.5198 19.185 6.6876C19.785 6.74991 20.35 7.0039 20.795 7.4121C21.24 7.8202 21.541 8.3608 21.655 8.9537C21.76 8.9835 21.863 9.0217 21.963 9.0677V7.2323C21.961 5.3856 21.226 3.61521 19.92 2.30921C18.615 1.00321 16.845 0.268315 14.998 0.265625Z" fill="#6BD0C8"/>
<path d="M27.153 26.2373L25.316 33.2192C25.616 33.2633 25.891 33.4135 26.089 33.6426C26.288 33.8716 26.398 34.1643 26.399 34.4675V35.7341H27.614C27.922 35.734 28.226 35.6606 28.501 35.5202C28.775 35.3798 29.013 35.1763 29.193 34.9264C29.374 34.6764 29.492 34.3873 29.54 34.0826C29.587 33.7779 29.561 33.4663 29.464 33.1736L27.153 26.2373Z" fill="#6BD0C8"/>
<path d="M18.101 19.9004C18.004 20.3612 17.804 20.7942 17.516 21.1671H23.152C21.764 20.339 20.177 19.9014 18.56 19.9004H18.101Z" fill="#6BD0C8"/>
<path d="M26.004 22.4336H3.99702C3.89702 22.4335 3.799 22.4563 3.71 22.5C3.621 22.5437 3.54301 22.6073 3.48301 22.6859C3.42201 22.7644 3.38 22.8558 3.361 22.9531C3.341 23.0503 3.34399 23.1508 3.36899 23.2468L5.98801 33.2003H24.012L26.631 23.2468C26.656 23.1508 26.659 23.0503 26.64 22.9531C26.62 22.8558 26.578 22.7644 26.517 22.6859C26.457 22.6073 26.379 22.5437 26.29 22.5C26.201 22.4563 26.103 22.4335 26.004 22.4336ZM15 31.3003C13.254 31.3003 11.833 30.1641 11.833 28.7669C11.833 27.3698 13.254 26.2336 15 26.2336C16.746 26.2336 18.167 27.3698 18.167 28.7669C18.167 30.1641 16.746 31.3003 15 31.3003Z" fill="#6BD0C8"/>
<path d="M6.84799 21.1661H12.484C12.196 20.7932 11.996 20.3603 11.898 19.8994H11.44C9.823 19.9004 8.23599 20.338 6.84799 21.1661Z" fill="#6BD0C8"/>
<path d="M2.84698 26.2363L0.536002 33.172C0.439002 33.4648 0.412983 33.7764 0.459983 34.0812C0.506983 34.3859 0.625998 34.6752 0.806998 34.9252C0.986998 35.1752 1.22498 35.3788 1.49898 35.5192C1.77398 35.6597 2.07798 35.733 2.38598 35.7332H3.601V34.4665C3.603 34.1631 3.713 33.8703 3.911 33.6412C4.11 33.4121 4.38499 33.262 4.68499 33.2182L2.84698 26.2363Z" fill="#6BD0C8"/>
<path d="M13.102 18.8047V19.2658C13.102 19.7697 13.302 20.2529 13.658 20.6093C14.014 20.9656 14.498 21.1658 15.002 21.1658C15.505 21.1658 15.989 20.9656 16.345 20.6093C16.701 20.2529 16.902 19.7697 16.902 19.2658V18.8047C16.302 19.0753 15.658 19.2316 15.002 19.2658C14.345 19.2316 13.701 19.0753 13.102 18.8047Z" fill="#6BD0C8"/>
<path d="M15.002 30.0333C16.051 30.0333 16.902 29.4662 16.902 28.7667C16.902 28.0671 16.051 27.5 15.002 27.5C13.952 27.5 13.102 28.0671 13.102 28.7667C13.102 29.4662 13.952 30.0333 15.002 30.0333Z" fill="#6BD0C8"/>
<path d="M19.849 15.0409C20.191 14.2414 20.393 13.3889 20.445 12.5209C20.454 12.3586 20.524 12.2057 20.642 12.0938C20.76 11.9819 20.916 11.9196 21.079 11.9199C21.314 11.9199 21.539 11.8264 21.706 11.6602C21.872 11.4939 21.965 11.2683 21.965 11.0332C21.965 10.798 21.872 10.5725 21.706 10.4062C21.539 10.2399 21.314 10.1465 21.079 10.1465C20.911 10.1465 20.749 10.0798 20.631 9.96101C20.512 9.84221 20.445 9.68121 20.445 9.51321C20.45 9.12981 20.313 8.7582 20.06 8.4704C19.807 8.1825 19.456 7.9989 19.075 7.9552C17.594 7.7719 16.185 7.21651 14.977 6.34081C13.794 7.21641 12.405 7.77181 10.945 7.95331C10.561 7.99541 10.206 8.178 9.94901 8.466C9.69101 8.754 9.54999 9.12701 9.55099 9.51321C9.55099 9.68121 9.485 9.84221 9.366 9.96101C9.247 10.0798 9.086 10.1465 8.918 10.1465C8.683 10.1465 8.45699 10.2399 8.29099 10.4062C8.12499 10.5725 8.03101 10.798 8.03101 11.0332C8.03101 11.2683 8.12499 11.4939 8.29099 11.6602C8.45699 11.8264 8.683 11.9199 8.918 11.9199C9.08 11.9196 9.23701 11.9819 9.35501 12.0938C9.47301 12.2057 9.54299 12.3586 9.55099 12.5209C9.60399 13.389 9.80601 14.2415 10.148 15.0409C10.764 16.2576 13.62 17.9999 14.998 17.9999C16.375 17.9999 19.232 16.2576 19.849 15.0409Z" fill="#6BD0C8"/>
</svg>
