<svg width="25" height="25" viewBox="0 0 25 25" fill="none" xmlns="http://www.w3.org/2000/svg">
<g clip-path="url(#clip0_208_37)">
<path d="M24.7852 1.24095L23.7495 0.213031C23.5336 -0.00134177 23.2063 -0.0600715 22.9286 0.0649472L17.3654 2.50218C17.1465 2.60103 16.9906 2.79985 16.9477 3.03419C16.9051 3.26916 16.9805 3.5095 17.1505 3.67818L21.2936 7.78979C21.4636 7.95847 21.7058 8.03324 21.9425 7.99104C22.1787 7.94844 22.379 7.79382 22.4786 7.57649L24.9345 2.05551C25.0604 1.77993 25.0013 1.45522 24.7852 1.24095Z" fill="#1E916F"/>
<path d="M4.73145 16.0029L0.642589 20.0607C-0.214196 20.911 -0.214196 22.2942 0.642589 23.1444L1.67833 24.1723C2.53512 25.0225 3.92891 25.0225 4.78565 24.1723L8.87451 20.1145L4.73145 16.0029ZM4.27496 21.6056C3.98868 21.8897 3.52535 21.8897 3.23912 21.6056C2.95294 21.3215 2.95294 20.8617 3.23912 20.5777L5.25645 18.5757C5.54273 18.2916 6.00601 18.2916 6.29219 18.5757C6.57847 18.8598 6.57847 19.3196 6.29219 19.6036L4.27496 21.6056Z" fill="#1E916F"/>
<path d="M11.9818 17.0308L7.83868 12.9192C7.26763 12.3525 6.33814 12.3525 5.76715 12.9192C5.19611 13.4859 5.19611 14.4083 5.76715 14.975L9.91026 19.0866C10.4812 19.6533 11.4107 19.6533 11.9818 19.0866C12.5528 18.52 12.5528 17.5975 11.9818 17.0308Z" fill="#1E916F"/>
<path d="M19.2222 7.78972L17.1506 5.73389L11.464 11.3773C10.8919 10.8096 9.96455 10.8096 9.39243 11.3773L8.87451 11.8913L13.0176 16.0029L13.5355 15.4889C14.1076 14.9211 14.1076 14.0008 13.5355 13.4331L19.2222 7.78972Z" fill="#1E916F"/>
<path d="M23.7149 17.3649C22.5259 16.1849 21.0961 15.9312 19.4556 16.2221L16.1258 12.918L15.3307 13.7071C15.5925 14.6835 15.3379 15.7555 14.571 16.5165L14.0542 17.0294L16.3457 19.3034C16.1147 20.5865 16.1364 21.6748 16.9394 22.8552C17.8661 24.2179 19.4879 24.9924 21.187 24.7603C21.4679 24.722 21.7025 24.5286 21.7928 24.2619C21.8831 23.9952 21.8135 23.7007 21.613 23.5017L20.6057 22.5039V20.4483H22.6792L23.6809 21.4424C23.8818 21.6418 24.1793 21.7104 24.4483 21.62C24.7173 21.5297 24.9115 21.2958 24.9493 21.0164C25.1282 19.6943 24.6923 18.3344 23.7149 17.3649Z" fill="#1E916F"/>
<path d="M8.64437 5.49031C8.93504 3.87926 8.69969 2.462 7.49286 1.26346C6.67172 0.448614 5.57308 0 4.39936 0C4.20175 0 4.00624 0.0127926 3.81327 0.0381356C3.53149 0.0752535 3.2956 0.268209 3.20448 0.535449C3.11337 0.802591 3.18295 1.09798 3.38393 1.29743L4.39545 2.29128V4.36107H2.31376L1.30976 3.35074C1.10922 3.15173 0.812204 3.08287 0.543357 3.17267C0.274607 3.26246 0.0802229 3.49553 0.0415999 3.7744C-0.181544 5.3869 0.522507 7.02508 1.95898 7.98744C3.15292 8.78572 4.25614 8.80549 5.53944 8.5759L7.84027 10.863L8.35731 10.3499C9.1242 9.58879 10.2043 9.33628 11.1882 9.59601L11.983 8.80723L8.64437 5.49031Z" fill="#1E916F"/>
</g>
<defs>
<clipPath id="clip0_208_37">
<rect width="25" height="24.81" fill="white"/>
</clipPath>
</defs>
</svg>
