<svg width="32" height="32" viewBox="0 0 32 32" fill="none" xmlns="http://www.w3.org/2000/svg">
<path d="M16.0008 3C14.8261 3 13.6525 3.21099 12.5321 3.63281C12.313 3.71544 12.1298 3.87234 12.0145 4.07617C11.5054 4.97391 11.1039 5.91054 10.7176 6.85156C9.71064 6.71299 8.6984 6.59227 7.6649 6.58398C7.29377 6.58125 6.95166 6.78427 6.77623 7.11132C5.18389 8.51629 4.10892 10.3869 3.68834 12.4609C3.49287 12.7773 3.4891 13.1761 3.67857 13.4961C4.204 14.3837 4.81662 15.1977 5.44029 16C4.8168 16.8026 4.20392 17.6173 3.67857 18.5039C3.49067 18.823 3.49443 19.2197 3.68834 19.5352C4.10867 21.612 5.18314 23.4865 6.77818 24.8926C6.77883 24.8939 6.77948 24.8952 6.78013 24.8965C6.95698 25.2193 7.29684 25.4188 7.6649 25.416C8.69841 25.4077 9.71064 25.287 10.7176 25.1484C11.1039 26.0895 11.5054 27.0261 12.0145 27.9238C12.1298 28.1277 12.313 28.2846 12.5321 28.3672C14.7729 29.2108 17.2307 29.2108 19.4715 28.3672C19.6907 28.2846 19.8738 28.1277 19.9891 27.9238C20.4982 27.0261 20.8978 26.0894 21.284 25.1484C22.2917 25.2872 23.3046 25.4077 24.3387 25.416C24.7092 25.418 25.0504 25.2151 25.2255 24.8887C26.8198 23.4819 27.8978 21.6084 28.3173 19.5313C28.5084 19.2161 28.5106 18.8213 28.3231 18.5039C27.7976 17.6163 27.1851 16.8023 26.5614 16C27.1856 15.1973 27.7979 14.3834 28.3231 13.4961C28.5126 13.1761 28.5088 12.7773 28.3133 12.4609C27.8929 10.3881 26.8185 8.51794 25.2274 7.11328C25.0525 6.78547 24.7103 6.58164 24.3387 6.58398C23.3046 6.59227 22.2917 6.71281 21.284 6.85156C20.8978 5.9106 20.4982 4.97386 19.9891 4.07617C19.8738 3.87235 19.6907 3.71544 19.4715 3.63281C18.3511 3.21099 17.1755 3 16.0008 3ZM16.0008 5C16.8207 5 17.6332 5.18202 18.4266 5.44141C18.9254 6.36019 19.3823 7.29133 19.7411 8.25391C19.9089 8.70496 20.3742 8.97249 20.8485 8.89063C21.8471 8.71681 22.8828 8.64692 23.9286 8.61915C25.1749 9.72528 26.019 11.1953 26.3563 12.8281C25.8077 13.7169 25.2282 14.5765 24.575 15.3594C24.2656 15.7304 24.2656 16.2696 24.575 16.6406C25.2278 17.4241 25.8076 18.2834 26.3563 19.1719C26.019 20.8047 25.1749 22.2747 23.9286 23.3809C22.8828 23.3531 21.8471 23.2832 20.8485 23.1094C20.3742 23.0275 19.9089 23.295 19.7411 23.7461C19.3823 24.7087 18.9254 25.6398 18.4266 26.5586C16.8397 27.0774 15.1619 27.0774 13.5751 26.5586C13.0762 25.6398 12.6213 24.7086 12.2626 23.7461C12.0946 23.2942 11.6281 23.0265 11.1532 23.1094C10.1547 23.2832 9.12077 23.3531 8.07505 23.3809C6.82872 22.2747 5.98264 20.8047 5.64536 19.1719C6.19414 18.2838 6.77558 17.4252 7.42856 16.6406C7.73805 16.2696 7.73805 15.7304 7.42856 15.3594C6.7755 14.5755 6.19619 13.7152 5.64731 12.8262C5.98494 11.1943 6.82934 9.72474 8.07504 8.61915C9.12075 8.64694 10.1546 8.71683 11.1532 8.89063C11.6281 8.97352 12.0946 8.7058 12.2626 8.25391C12.6213 7.29136 13.0762 6.36016 13.5751 5.44141C14.3685 5.18203 15.181 5 16.0008 5ZM16.0008 11C14.4175 11 13.1027 11.6298 12.2528 12.5859C11.4028 13.5421 11.0008 14.7778 11.0008 16C11.0008 17.2222 11.4028 18.4579 12.2528 19.4141C13.1027 20.3702 14.4175 21 16.0008 21C17.5842 21 18.8989 20.3702 19.7489 19.4141C20.5988 18.4579 21.0008 17.2222 21.0008 16C21.0008 14.7778 20.5988 13.5421 19.7489 12.5859C18.8989 11.6298 17.5842 11 16.0008 11ZM16.0008 13C17.0842 13 17.7694 13.3702 18.2528 13.9141C18.7362 14.4579 19.0008 15.2222 19.0008 16C19.0008 16.7778 18.7362 17.5421 18.2528 18.0859C17.7694 18.6298 17.0842 19 16.0008 19C14.9175 19 14.2323 18.6298 13.7489 18.0859C13.2655 17.5421 13.0008 16.7778 13.0008 16C13.0008 15.2222 13.2655 14.4579 13.7489 13.9141C14.2323 13.3702 14.9175 13 16.0008 13Z" fill="black" fill-opacity="0.5"/>
</svg>
