<svg width="25" height="25" viewBox="0 0 25 25" fill="none" xmlns="http://www.w3.org/2000/svg">
<g clip-path="url(#clip0_208_23)">
<path d="M12.3218 11.951C13.9762 11.951 15.4088 11.3622 16.5794 10.2003C17.7499 9.0387 18.3433 7.61737 18.3433 5.97533C18.3433 4.33385 17.7499 2.91233 16.5792 1.75031C15.4085 0.588863 13.976 0 12.3218 0C10.6672 0 9.23494 0.588863 8.0644 1.7505C6.89386 2.91214 6.30029 4.33366 6.30029 5.97533C6.30029 7.61737 6.89386 9.03889 8.06459 10.2005C9.23532 11.362 10.6677 11.951 12.3218 11.951V11.951Z" fill="#1E916F"/>
<path d="M22.8579 19.0776C22.8241 18.5941 22.7558 18.0668 22.6553 17.5099C22.5538 16.9489 22.4232 16.4185 22.2668 15.9337C22.1052 15.4327 21.8855 14.9379 21.6139 14.4638C21.332 13.9716 21.0009 13.5431 20.6293 13.1904C20.2408 12.8215 19.7651 12.5249 19.215 12.3086C18.6668 12.0933 18.0593 11.9843 17.4095 11.9843C17.1543 11.9843 16.9075 12.0882 16.4309 12.3962C16.1375 12.5861 15.7944 12.8056 15.4114 13.0485C15.0839 13.2556 14.6402 13.4496 14.0923 13.6252C13.5576 13.7969 13.0148 13.884 12.479 13.884C11.9432 13.884 11.4006 13.7969 10.8654 13.6252C10.318 13.4498 9.87434 13.2557 9.54723 13.0487C9.16786 12.8081 8.82454 12.5885 8.5268 12.396C8.05073 12.088 7.80373 11.9841 7.54852 11.9841C6.8985 11.9841 6.2912 12.0933 5.74322 12.3088C5.19352 12.5247 4.71764 12.8213 4.32873 13.1906C3.95737 13.5435 3.62606 13.9718 3.34454 14.4638C3.07312 14.9379 2.85339 15.4325 2.69165 15.9339C2.53544 16.4187 2.40479 16.9489 2.30331 17.5099C2.2028 18.066 2.13451 18.5936 2.10075 19.0781C2.06757 19.5528 2.05078 20.0456 2.05078 20.5432C2.05078 21.8383 2.46563 22.8867 3.28369 23.6599C4.09164 24.4229 5.16071 24.81 6.46076 24.81H18.4984C19.7985 24.81 20.8672 24.4231 21.6753 23.6599C22.4936 22.8873 22.9084 21.8386 22.9084 20.543C22.9082 20.0431 22.8912 19.55 22.8579 19.0776V19.0776Z" fill="#1E916F"/>
</g>
<defs>
<clipPath id="clip0_208_23">
<rect width="25" height="24.81" fill="white"/>
</clipPath>
</defs>
</svg>
